<?xml version="1.0" encoding="UTF-8"?>
<svg width="100%" height="100%" version="1.1" viewBox="0 0 1600 800" xmlns="http://www.w3.org/2000/svg" xmlns:cc="http://creativecommons.org/ns#" xmlns:dc="http://purl.org/dc/elements/1.1/" xmlns:rdf="http://www.w3.org/1999/02/22-rdf-syntax-ns#">
 <metadata>
  <rdf:RDF>
   <cc:Work rdf:about="">
    <dc:format>image/svg+xml</dc:format>
    <dc:type rdf:resource="http://purl.org/dc/dcmitype/StillImage"/>
    <dc:title/>
   </cc:Work>
  </rdf:RDF>
 </metadata>
 <g transform="translate(612.6 -38.15)">
  <g transform="matrix(0 1.651 -1.867 0 984.1 42.34)" stroke="#000" stroke-width="1.333">
   <path d="m315.9 851c11.08-21.36 17.96 3.977 0 0zm14.06-2.074c8.145-11.38 10.78-2.857 7.692-10.85 0.1192-17.48 5.838-24.06 14.47-33.44 15.53 6.296 8.156 26.63 16.21 24.93-11.15 10.72-20.09 31.6-38.37 19.37zm24.29-28.69c2.067-23.38-8.144 11.07 0 0zm-196.1 5.33c-0.6309-12.16-37.14-17.78-8.226-25 26.35-16.52 32.05 25.58 8.226 25zm145-19.82c-0.4548-14.83-27.15-42.19-4.509-15.76 4.871 22.16 15.13 9.628 22.93 3.252 14.1 5.901 15.37 26.2 3.683 3.777-6.747 2.585-14.87 19.73-22.11 8.732zm-111-1.82c-17.95-10.29 14.45-12.41 4.172-26.59 1.015 18.47 6.518 16.67-4.172 26.59zm-87.51-10.28c-7.351-16.62 20.66-8.103 0 0zm39.33-1.627c17.17-18.05 23.33 3.521 0 0zm-26.11-7.019c20.28-18.29 8.175 5.821-5.162 5.625zm17.59-0.4424c3.315-17.66 20.25 9.159 0 0zm-30.14-9.224c-14.33-15.3 6.727-23.82-0.6386-27.84-16.57-6.017-12.1 0.7714-14.46-17.78-13.88-6.327-33.51-34.05-8.321-14.52 7.135 20.72 23.14 27.74 23.87 25.22 13.11 3.563 25.83-4.514 38.92-11.76 13.11 14.63-27.28 11.24-8.126 21.88-21.98-0.9415-23.15 32.48-31.24 24.79zm169 1.081c-5.895-7.048 1.511-38.21 3.426-11.94 0.5843 2.723 2.756 19.03-3.426 11.94zm-87.33-2.073c-5.778-14.7 15.77-29.78-7.307-19.65 2.185-6.081 17.54-21.88 18.17-8.493 0.7972-17.92 44.79-42.25 43.18-26.57-7.705 7.896-25.65-0.8126-10.99 15.62-8.086 3.522-23.57 33.77-2.028 19.1 1.819 19.38-33.77-5.842-25.67 19.86-17.67-10.88-0.3987 7.547-15.35 0.1238zm12.56-13.83c7.865-11.45 22.22-12.64-1.702-11.97-6.122 1.23 2.624 25.18 1.702 11.97zm40.43 14.15c-0.1903-22.63 18.04-2.502 0 0zm-85.33-2.792c-18.9-21.82 21.41-1.068 0 0zm100.5-12.4c-26.72 5.59-4.267-23.95 3.383-8.058 8.225 5.555 19.35 10.12-3.383 8.058zm-222.4-8.869c-12.8-31.28 22.78 15.07 0 0zm233.6-1.43c-21.81-2.506-0.5756-10.18 0 0zm-202.8-3.999c-13.12-5.999-14.23-18.08-26.4-10.96-31.45 10.72 0.3863-28.59 13.68-21.15 20.7-13.65-11.4 12.98-20.11 13.54 10.91-7.424 44.22 13.35 32.83 18.57zm172.1-0.1725c13.35-7.543 28.37-9.324 5.586 0.8707l-2.987 0.9455zm-110.3-14.85c7.941-14.33 24.97-19.61 29.06-13.59-12.16-3.187-22.59 27.05-29.06 13.59zm-55.07-2.581c-41.07-7.169 28.56-15.25 0 0zm90.02-25.81c-21.72-7.909-54.68-29.2-30.75-49.76 6.172-22.15 35.62-13.56 42.26 8.441-12.35-16.07-53.44-12.04-35.06 0.0238 11.11-1.352 47.86 1.148 28.59 14.64 33.51 8.551-41.92 1.915-4.458 22.85 2.469-0.2962 5.144 7.247-0.579 3.809zm-24.61-18.08c25.18-14.55-14.15-19.28 0 0zm153.8 15.38c-22.87-5.428-3.052-29.09-1.984-2.025 31.77-1.364-15.85-39.33-20.94-7.565-3.778 8.76-34.43-2.63-24.06-19.26-28.56-5.602-3.205-43.91 3.456-16.73 26.98-1.758 79.21 16.28 47.99 46.26l-2.311 0.0612zm-30.83-24.18c-2.609-35.45-13.65 14.61 0 0zm-195.6 6.115c11.68-10.15-18.53-45.98 1.848-22.4 7.179 14.7 9.252-13.35 2.008-20.19 16.37-6.396 14.76-0.48 8.524 9.349 16.08 12.09 47.68-20.38 26.91 9.45-16.04-12.66-33.4 7.345-39.29 23.79zm-18.07-20.77c-5.131-25.4 12.13 17.31 0 0zm42.32-14.87c8.088-18.99 17.16 2.974 0 0zm-21.94-13.73c-16.46 1.573-14.33-25.22-2.445-7.171 5.988 2.167 7.203 1.175 15.35 3.355-3.095 3.82-8.359 4.797-12.9 3.816zm68.74-1.191c-20.36-12.75 17.65-8.843 14.11-27.58 10.41-15.8 22.7-38.64 31.19-20.41 15.05 1.848 2.6 8.97 14.03 15.04-2.619 14.52-10.55 1.723-18.36 10.97-8.381-4.521-18.71-16.24-11.71 0.948-11.74-19.55-20.99 25.23-29.26 21.03zm38.58-35.18c-4.339-17.99-9.872-1.067-2.325 4.863l0.8189-0.4173zm77.93 29.28c-15.07-29.63 6.839-15.81 0 0zm-35.37-1.754c-3.812-23.13 13.7-8.393 0 0zm-125.3-0.134c2.146-10.61-25.85-9.694-10.99-19.14 3.736 6.84 31.81 24.43 10.99 19.14zm108.7-9.978c12.49-20.66 9.732 7.083 0 0zm27-8.105c3.452-24.1 15.73 3.473 0 0zm17.73-0.4586c7.393-16.02 18.31 2.667 0 0zm-40.73-6.19c2.311-18.36 18.2 7.976 0 0zm-132-13.11c43.01-24.76 2.384-58.87-26.77-71.88-15.26-5.09-10.52 17.59-22.56 11.45-3.917 16.21-29.04 33.88-21.34 4.521-5.808-37.51 31.22-68.83 58.98-77.1 20.3-7.624-12.5 28.5-22.7 34.97-8.397 21.73 28.26-12.55 11.75 15.8 7.493-13.8 27.21 4.489 11.97-12.64-8.831-14.49 13.48 6.214 18.06-12.42 10.87-13.91 30.78-14.16 27.49 2.603 9.413-12.12 1.526 8.358 14.82 0.971-16.02 23.09 43.75-17.74 25.24 14.98 26.53 25.22-21.89 7.725-22.08 14.75-13.86 9.406-13.96 34.64-6.665 36.92-12.45 15.94-26.75 29.55-46.2 37.07zm14.79-53.77c-17.08-19.68-8.19 11.72 0 0zm9.208-21.95c18.22-18.93-36.61-23.09-10.02-0.0474 1.723 3.419 10.36 6.696 10.02 0.0474zm-70.67-3.89c23.27-2.81-5.542-17.97 0 0zm-7.333-2.23c24.61-20.04-19.22-5.423 0 0zm8.893-16.16c20.26-27.42-25.09 11.62 0 0zm153.3 88.53c-11.32-21.53 26.13 8.411 0 0zm-136.7-8.045c9.566-8.537-15.64-41.27 9.411-23.73 8.753 25.83 13.01-30.05 11.59 4.256-1.382 9.095-8.396 31.38-21 19.47zm187.9-3.247c1.13-19.78 15.57 10.87 0 0zm-7.98-7.949c1.301-17.73 16.04 6.068 0 0zm-153.6-10.72c-3.189-13.3-2.643 5.768 2.548 2.468zm130.2-7.65c8.67-28.85 27.55 2.918 0 0zm50.68-11.39c7.498-22.61 10.25 8.552 0 0zm-114.7-4.857c-17.64-12.63 24.42 2.688 0 0zm72.67-42.81c-23.18-17.47 21.99-13.37 24.99-17.76 7.405 19.87-34.95 4.742-24.99 17.76zm-91.43-4.787c2.734-12.11 6.088-26.35 3.18-33.11 10.53-17.01 3.512-23.23 24.44-32.06-18.08-16.38 29.38 9.007 7.091-10.67-6.302-8.731 24.26 0.2062 12.37-16.95-21.42 0.4487 10.16-14.05 12.07-3.661 9.011-4.242 25.8-2.644 13.67 9.527 23.21 3.624-1.008 14.7-9.367 0.9059-21.21 0.0184-40.95 58.1-11.18 50.21 11.84 1.164-27.3 48.12-42.85 26.6-18.93 5.958 9.233 8.659-9.423 9.219zm25.88-46.51c12.81-24.46-22.89 6.268 0 0zm45.89 36.97c-3.765-24.19 46.16-21.37 13.91-11.21-4.323 4.017-6.74 12.12-13.91 11.21zm-130.9-28.77c-1.364-23.96-9.049 9.746-22.02-2.473 30.26 7.396 1.395-34.74 19.65-24.93-22.6-8.547-2.609 0.0707-8.551-19.09 6.088 7.326 5.736 15.21 16.95 12.01-7.84 20.12 7.349 15.66 9.935 7.363 13.7 6.675-10.65 32.87-15.97 27.12zm5.626-5.422c-0.05439-23.91-11.7 14.77-0.07522 1.36zm130.5 4.186c-19.8-22.22 9.968-10.04 0 0zm-79.1-2.867c9.231-13.48-18.85-49.5 2.657-18.65 1.284 4.332 10.31 25.56-2.657 18.65zm-81.61-4.594c2.934-18.12 23.08 5.066 0 0zm-8.694-11c-5.211-8.998-15.86 3.497-18.85-1.831 3.959-9.487 32.92-50.39 32.34-27.06-25.86-3.558 15.79 14.59-14.84 11.4-8.716 2.467 4.707 4.924-5.211 8.939 23.26 1.303 19.08 11.68 6.553 8.556zm153.9 0.4683c-0.5754-24.24 21.24-2.455 0 0zm-171.6-25.09c15.24-31.31 15.84 0.6314 0 0zm112.4-4.412c-1.412-15.45 17.71-13.6 5.766-4.745 5.273 3.4-2.935 9.43-5.766 4.745zm33.08-6.966c-16.75 1.463-17.36-15.73-0.142-9.714-17.63 9.882 17.01 3.932 0.142 9.714zm-148.2-2.592c-1.512-11.97 1.144-36.54 8.553-44.98 13.24-4.363 47.71 25.85 16.97 10.36-38.6-16.61-0.7583 29.73-25.53 34.63zm173-5.982c-10.74-23.68 44.04 0.5779 10.97-4.568-2.567 1.313-8.39 11.33-10.97 4.568zm-47.89-4.291c-21.32-19.25 27.25-1.165 1.803-7.092 0.1979 3.978 7.738 15.48-1.803 7.092zm-78.01-10.43c2.539-14.01-17.82-26.68-15.26-33.62-19.15 11.14 2.485-13.31 13.02 4.903 20.4-1.618 4.869 11 7.7 19.13 13.79-20.3 2.692 16.68-5.457 9.588zm17.78-33.7c-2.746-13.89 21.84 3.331 0 0zm-13.21-7.425c12.48-25.17-18.23 5.006-12.94-19.58 4.763-30.94 8.421-1.854 14.75-0.9646 11.45-8.386 14.68-23.97 1.701-19.82-0.964-36.99 39.7-12.62 19.97 6.787-16.63 14.5 28.02 14.81-1.058 20.12-5.407-5.663-23.59-13.62-12-3.014 12.65 3.006-9.235 0.6779 6.572 8.022 15.16 22.2-18.94-11.66-14.6 9.983l-0.8739 0.4832zm120.4-9.135c-14.91-23.45 32.7 0.8933 0 0zm-175.1-32.95c-10.37-30.44 32.4-52.69 22.38-12.64-25.31 2.969 11.2 23.57-12.1 27.87-12.93 32.11-10.45-6.768-10.28-15.23zm14.9-14.24c4.842-22.41-20.11 7.54 0 0zm16.97 40.44c-12.76-17.45 20.47-10.67 0 0zm8.467-44.45c-15.63-6.735-15.3-33.87 5.682-20.43-6.993 5.191-8.042 16.55-5.682 20.43zm11.86-13.64c0.8495-21.4 28.46 7.258 0 0zm75.34-1.838c-17.55-32.13 25.97 7.9 0 0zm-127.3-21.45c7.884-20.56-7.294-61.05 16.36-35.04 27.8-7.172-3.001 19.46-8.865 27.79-7.562-6.845-3.481 18.2 7.276 2.108 11.32 9.918-24.95 29.15-14.77 5.14zm45.98 6.04c-18.26-20.89 19.88 2.845 0 0zm-19.68-43.9c9.249-18.71-35.39-10.06-7.209-20.59 15.01 9.784 38.18 15.25 7.209 20.59zm-26.53-33.37c8.558-26.36 26.35-8.315 2.873 1.606l-2.497 1.049z" fill="#cdcdcc"/>
   <path d="m353.3 852.1c5.527-15.93 22.56-26.41 9.258-28.85-13.6-34.17 39.33 13.83 14.66 16.35-0.8239 6.146-16.68 18.32-23.92 12.5zm18.67-8.079c19.79-26.66-25.58 1.002 0 0zm3.049 5.536c7.263-14.31 29.03-27.74 25.83-1.587-3.026 7.282-20.07 6.23-25.83 1.587zm50.95 2.464c33.76-18.6 13.31 3.666 0 0zm-74-28.5c-8.904-19.66 11.07-12.49 0 0zm-115.7-3.764c-0.6491-14.68-12.14-40.6 14.78-26.35 16.16 7.659-2.873 33.89-14.78 26.35zm-68.22-11.65c-2.852-13.29-11.78-36.06 10.36-36.54-30.68 10.85-26.04-61.68-43.3-33.34 6.572 8.143 16.14 20.25-2.942 10.42 5.877-24.14-46.82 3.785-15.06-15.79 0.7074-15.46 9.174-16.52 12.5 0.7537 11.86-22.72 26.61 5.134 38.15 0.1056 7.757-17.29 32.13-19.19 26.81 1.858-14.99-0.6828 0.0928 9.19-13.75 10.97-7.012 17 22.28-3.365 4.836 19.65 16.88 18.65 5.554 26.77-7.348 32.05 9.085 9.888-4.092 17.49-10.26 9.872zm9.268-19.09c-4.449-22.46-14.25 2.231 0 0zm83.86 20c-9.035-31.52 14.31-13.65 0 0zm68.64-4.336c-5.066-31.83-27.2 19.29-29.41-12.99-14.95-15.02 22.01-46.27 42.35-46.9 10.65 9.734 41.05-18.07 17.29 6.755-16.73 11.96-15.59 46.07-30.23 53.13zm-278.6-17.4c-1.877-12.72-8.532-41.15 11.1-21.16 5.734 9.655 15.79-3.093 8.594 15.84 7.627 2.335-16.13 16.5-19.69 5.325zm85.62-7.095c18.46-1.154 10.07-33.45 19.21-14.12 5.932 7.298-12.9 20.43-19.21 14.12zm-59.57-1.831c-9.945-26.83 15.12-21.4 0 0zm202.6-5.844c1.936-14.21 24.85 10.8 0 0zm-3.834-10.35c5.406-12.56-34.71-7.973-16.26-14.63 18.98 1.009-20.11-21.62-24.6-0.9615-17.84 0.3902-5.814 15.61-19.56 8.35 17.05-13.56 9.749-37.59 13.16-32.98 8.664 12.16 24.37-19.01 0.1354-6.246-17.44 2.464-39.08 43.05-18.53 8.105 9.778-17.77 36.28-37.21 8.738-52.01 2.752-13.63 10.16-43.38 19.54-29.3 15.43 17.83 38.11-4.279 52.04 17.71 23.02-23.2 13.72 54.47 9.918 16 1.404-29.76-49.55-8.054-58.6-29.91-9.18-13.09-23.48 16.85-2.569 19.72 2.971 14.14 1.938 30.51 18.46 25.23 19.52 0.1589 32.42 7.514 53.57 5.837 3.415 31.55-50.99-21.43-40.19 8.358 14.57-4.565 19.86 11.87 4.837 22.11 6.059 19.48-15.04 10.38 1.822 27.78 7.698 1.201 2.465 12.47-1.903 6.833zm-8-38.7c-6.786-18.72-20.11-1.658 0 0zm-162.6 29.98c-22.13-17.88 19.61 2.373 0 0zm-1.862-25.12c-12.77-3.526 27.33-46.53 15.08-15.66-4.8 3.223-7.952 21.11-15.08 15.66zm-29.35-2.297c-2.66-10.94-5.172-13.62 8.919-3.79 0.6498 4.873-6.331 4.09-8.919 3.79zm17.23-0.1413c-10.39-22.86-37.35-22.11-49.97-10.2 5.937-17.6 30.84-40.85 34.1-54.97-19.48 5.347 1.053-13.81-22.36-12.13 13.86-26.12 29.02 24.11 44.22 28.12-3.022 15.83 21.94-2.849 6.865 18.57-4.882 9.767-13.4 19.06-12.86 30.61zm-8.793-48.27c-7.585-24.46-5.934 15.56 0 0zm61.27 36.08c-9.245-21.17 8.638-5.71 0 0zm16.11-9.561c-22.39-12.42 14.58-7.036 1.887 1.14zm-23.85-13.55c-16.08-7.842-26.71-24.51-4.872-6.94 5.202 4.528 20.95 17.14 4.872 6.94zm14.85-0.8653c2.429-16.35 30.02-4.679 3.654-6.705-0.01 1.402 0.4576 8.73-3.654 6.705zm-16.78-5.245c-10.84-23.83 23.73-7.96 0.9872-5.533-0.7038 1.626 2.582 8.9-0.9872 5.533zm38.44-0.4444c14.01-8.255-19.75-8.783 0.9095-18.97-18.31 5.758-8.82-5.053-17.63-11.57-0.4249 22.2-47.21-11.45-9.814-0.4905 9.637-10.74 30.08 18.38 23.48 0.1785-11.9-5.541-22.5-22.91-29.97-8.743-8.642-21.92 23.92-56.18 36.91-35.98 17.44 2.991 20.11-19.53 7.474-19.84 21.51 1.921 38.03-39.95 7.27-24.17 10.73 24.17-23.07-1.242 0.7001-6.988-5.116-19.83-55.41-6.995-26.31-26.45-2.437-22.92 23.44 6.655 7.414-15.61 18.64-30.47 12.16 42.93 31.24 7.209 13.25-0.9383-15.95 22.19 6.854 11.25 3.784-9.172-1.484-27.54 12.99-17.87 8.617 10.42 27.5 25.59 13.56 32.71 15.58 16.09-18.23 31.17 6.218 29.19-4.93 12.86 18.09 19.06 1.294 24.38 31.61-10.39 6.32 48.03 0.0461 8.269 15.59 3.819-7.966 36.96-2.435 10.95 13.02-1.396-5.13-13.2-5.062 4.302-7.261-12.85 10.25-20.81-7.462-20.58 8.351-27.06-4.972-13.82-7.138 5.743-6.916 14.76-1.66-16.7-7.045 4.961-4.394 31.81-23.45-3.534-40.14-5.078-40.01 7.807-13.01 40.81 6.381 52.62-18.25 14.68-2.891 1.98 0.5444 11.39 1.214 2.785-8.729 15.29-10.3 9.194zm39.44-61.33c-8.644-3.893-3.362-26.08-13.44-8.039 8.04-5.846 4.85 16.12 13.44 8.039zm2.642-13.38c-5.984-23.51-7.139 20.18 0 0zm-2.751-11.44c-1.496-17.44-17.16 7.948 0 0zm10.67-16.51c-13.64-12.46-21.16-0.2288 0 0zm14.13-18.32c-2.195-14.95-12.78 10.27 0 0zm-8.599-8.061c6.222-13.93-15.31 5.956 0 0zm-6.043-11.07c16.35-19.45-9.125-5.244-6.565 3.536zm-57.14-1.428c16.7-4.054 4.017-18.37 1.349-3.028-3.84-3.766-6.243 8.503-1.349 3.028zm-89.54 107.7c2.47-9.918 8.903-17.2 1.948-17.36 7.594-2.553 28.37 7.302 8.856 8.145 14.07 13.86-4.45 5.723-10.8 9.217zm-22.68-15.27c9.139-8.01 28.73 1.619 1.837 3.28l-1.904-0.71zm30.59-12.25c-9.833-5.611 5.457-21.57 6.609-17.57 22.19 10.1-3.894 16.51-6.609 17.57zm50.17-1.408c-27.37-5.729 18.52-13.19-7.802-9.71-10.57-19.9-36.09-39.55-56.64-19.08 15.58-19.03 57.73-33.92 40.9-61.84 0.9098-25.37 45.41-25.29 32.88-11.65-27.23-9.183 20.44 25.17 1.623 24.19-1.261-35.15-28.02 10.35-25.77-1.882 7.591 6.736 34.64 1.761 20.19 17.99 12.2-19.04 43 5.061 21.77 6.23-3.487 15.06 46.63 21.05 10.03 12.27-9.735 3.938-12.12 7.598-14.59-6.835-0.5233 18.42-7.407 38.9-22.6 50.31zm159.8-0.7756c-13.82-5.598 1.109-18.67-4.127-26.97 23.4-34.21 46.03 44.61 12.11 9.983-12.34 9.037 5.194 19.13 2.256 17.38-2.572 1.168-9.053 4.291-10.24-0.3978zm-227.7-1.15c2.065-18.38 13.4-21.41 5.256 0.1827-0.8878 2.273-4.576 2.191-5.256-0.1827zm188.6-26.81c-16.45-22.41 15.93-12.78 0 0zm28.44-6.342c6.292-20.39 13.58 6.483 0 0zm-201.3-53.23c-18.71-9.034 16.03-10.79 0 0zm167.2-6.133c-3.954-19.13 12.9-10.66 9.596-18.94 13.24-32.05 40.42 38.89 9.119 14.1 1.753-25.91-20.08 27.55-18.72 4.833zm5.425-0.0683c13.1-20.01-13.14-3.198 0 0zm-164.2-13.55c-23.1-8.689 2.807-31.47 11.02-9.27-19.84-3.143 1.243 7.935-11.02 9.27zm-69.03-7.615c5.007-22.66 27.12 8.805 0 0zm-8.88-3.634c4.181-24.63 24.38 1.29 0 0zm34.77 0.862c15.94-19.76-7.117-10.78-12.49-7.084-3.82-13.2 34.59-38.42 18.95-16.66 16.8-3.363 27.33-34.3 36.01-25.48-10.57 11.05 40.01 6.611 11.39-7.5-34.44-5.266-12.4-39.72 12.72-28.19-25.05-23.58 10.15-23.88 3.626-7.674-18.04-29.03 5.844 46.45 1.603 8.382 20.69 6.141-11.98 23.55 3.41 39.69-15.31 10.35 2.875 18.97-2.477 10.13 16.3-8.463 24.71 11.81 38.07-10.11 10.72-11.39 21.88-26.04 1.598-17.87-14.06-18.45 7.185 5.928 14.58-12.28 28.92 11.51-21.41-28.51 13.31-29.9-23.57-27.72-18.19 47.8-35.35 21.21 9.425-15.28 25.83-49.1 40.23-19.64-12.47 8.391 22.05 48.65 0.7497 24.08-6.999-12.61-14.82-25.16-14.66-4.331 35.26-0.5415-17.39 55.86 17.42 27.52 21.19-17.48-17.19 32.93-24.3 8.632-9.517 18.16-15.13 33.35-38.78 28.97-5.143 2.724-24.28 9.191-10.56-3.01-10.35 9.815-10.95-17.37-16.43-0.0994-1.11-45.1-40.02 17.78-47.61 5.725 8.346 9.065 13.52 14.31-2.459 6.707 10.58 4.547-4.515 8.767-8.574 8.781zm113.9-30.21c-7.236-13.56-19.62 2.419 0 0zm-141.4 14.29c7.37-21.73 15.67 6.067 0 0zm197.5-1.472c15.51-5.03-25.72-3.887-6.007-7.047-13.69-17.66 14.61-1.642 14.44 0.3603 12.59 1.173-3.98 10.53-8.438 6.687zm86.33-9.117c1.824-15.67 14.79 11.5 0 0zm-89.41-8.027c-5.494-20.02-10.73-7.767-13.7-1.565-27.84-4.983 22.84-26.36 16.73-0.5616 16.42-5.697 6.58 2.137-3.032 2.126zm-178.3-7.444c-8.831-14.4-21.72-34.14 7.709-25.79 5.246 20.46 7.262-27.47 17.69 3.365-9.981 1.067-9.345 10.74-22.28 14.43-9.948 9.939 17.76 11.95-3.119 7.988zm186.7-0.7891c-0.9614-1.851-24.01-25.67-4.141-16 4.632 2.677 15.67 14.13 4.141 16zm-153.2-4.7c-16.69-4.001 8.846-23.42 0.221-7.191 5.825 1.962 8.431 8.038-0.221 7.191zm-1.124-19.45c3.006-32.73 17.13-6.229 0 0zm-2.354-18.15c-20.71-14.99 32.65-11.23 2.132-9.421-1.218 2.051 2.283 12.71-2.132 9.421zm81.35-10.27c-9.268-9.188 18.08-29.99-5.829-22.27 5.832 27.05-36.15-9.96-28.64-6.173-25.29 2.569-0.1713-14.02 5.772-21.84-38.95-5.081 34.8-10.06 15.5 6.256-20.92-25.28-8.705 29.68 16 14.3 9.545 1.334-3.946-2.847-3.544-8.476-36.62-0.1147 40.95-4.009 10.68 11.37-1.18 29.29 12.58-14.81 3.795 10.56-7.025 13.15-19.21-5.464-3.297 12.22 2.691 3.45-10.13 8.271-10.43 4.047zm-21.33-21.92c1.995-12.83-17.24-25.87-4.976-5.382-10.01 3.234 2.076 13.23 4.976 5.382zm152 21.92c-8.859-23.55 18.67 4.404 0 0zm-224.9-6.58c0.3417-19.19 20.8 5.883 0 0zm-52.24-6.408c-2.936-17.22 26.41-45.25 17.14-16.9-12.31-0.8174-8.688 34.62-17.14 16.9zm216.4 5.46c-15.71 2.118-17.3-15.07-23.56-14.19 10.97-1.704 17.39 13.05 27.34 13.2zm67.75-0.3517c-6.305-18.55 19.29-5.913 0 0zm-58.5-8.448c11.07-26.85 18.15 18.66-0.0592 0.432zm-191.9 2.085c-26.59-11.3 30.63-3.123-2.306-12.92-14.67-8.482 25.5-8.287 7.618-20.43 20.38 10.78 7.473 37.36-5.312 33.35zm134.7-15.82c2.831-22.39 12.68 10.5 15.64-8.9 18.89-3.818 2.132 2.668 8.47 4.968-7.467 3.271-15.97 5.009-24.11 3.932zm82.33-8.042c-7.59-30.61 31.2 6.272 0 0zm-50.25-2.768c-19.7-3.585-28.47-17.9-2.777-18.92 9.355 8.707-22.26 7.957 2.891 15.13 2.918-1.125 7.529 7.281-0.1149 3.797zm-141.2-3.413c-11.12-3.07-49.07-28.86-17.86-12.74 2.697-27.28-64.59-8.25-24.03-24.33 13.28-10.92 34.29-5.612 18.63-29.91 9.468-12.09 3.253 25.25 17.65 6.777 3.963 6.139-1.092 16.52 16.86 9.969 3.763 4.966 14.05-17.07 13.23 3.061-0.2655 23.49-55.23-11.99-24.96 11.15 12.45-3.012 13.38 38.14 0.4857 36.02zm-4.416-6.778c2.651-7.035 12.59-19.28-1.391-7.711-0.5209-13.19 16.44-18.25-4.893-21.34-5.607-12.53-34.41-2.16-16.92-1.328 14.26-9.332-3.445 21.88 17.49 17.19 2.641 4.469-6.248 20.19 5.714 13.19zm23.53-37.33c-18.88-10.37-16.69 14.76 0 0zm-77.07 31.39c-4.902-26.04 17.41 2.51 0 0zm7.96-2.372c-0.6884-21.81 12.7 0.4181 0 0zm84.72-16.26c6.522-18.76 17.22 5.693 0 0zm-3.217-18.16c6.601-13.74-10.45-4.416-4.182-17.96-17.42-27.21 26.34 19.29 4.182 17.96zm-19.03-5.556c-1.008-12.79-11.53-7.186-10.36-14.53 4.959-7.994 17.93 15.01 10.36 14.53zm102.7 0.0179c-17.76-7.758-11.88-42.15-3.611-19.85 2.749 11.33 1.997 23.31 12.82 21.21l-5.599-0.2839zm-147.5-11.75c-29.07-15.76 32.25-17.56-0.1091-1.494zm163.1-1.178c-8.466-19.17 15.17-2.929 0 0zm-115.6-12.8c30.4-12.38-22.18-43.63-17.42-9.626-6.343-20.74 9.326-45.14 21.29-16.8 10.97 8.085 12.82 25.08-3.863 26.43zm-34.44-1.742c6.58-15.38 21.57 4.021 0 0zm-1.057-23.17c17.53-5.926 3.595-14.65 6.233-26.42 20.25 1.984-12.5-27.35 10.57-8.044 12.61 12.85-14.57 14.44-4.158 30.84-3.369 3.362-8.345 3.123-12.65 3.62zm90.39-11.64c-17.62-9.584-7.696-50.2 0.0875-18.85 18.13 16.52-14.39-7.868-3.439 10.97 4.673 2.569 16.57 4.252 3.351 7.882zm-121.8-3.829c-16.85-2.813 4.257-24.85 9.402-8.972 6.205-13.76-17.89-24.78 0.8786-35.27 15.84-3.72-17.64 8.281-0.8431 20.58 12 11.42-8.106 29.21-9.438 23.66zm241.2-8.243c-17-27.24 24.77 8.493 0 0zm-247.8-30.04c-4.876-36.17 10.72-4.965 0 0zm28.82-11.67c0.1903-29.61-23.23 9.927-25.37-22.49-2.692-21.41 7.847 14.74 13.51 1.011 4.127-0.8993 23.67 21.43 11.86 21.48zm43.78-3.593c-1.083-13.63 22.45 4.13 0 0zm67.55-16.09c3.194-29.02 26.82 7.71 0 0zm-139.9-17.57c8.115-11.27 26.79-38.17 11.06-10.65-3.447 3.511-5.458 9.765-11.06 10.65zm2.661-23.67c4.088-18.17 20.1 13.55 0 0z" fill="#aeaeae"/>
   <path d="m468 851.4c6.902-13.74 18.93 11.42 0 0zm-34.67-2.902c1.668-17.54 21.55-52.71 22.46-17.5-6.023 13.44-12.23 10.17-22.46 17.5zm-5.663-44.88c7.73-19.96 7.707 6.588 0 0zm-249.7 0.3214c-2.932-17.26 16.85-22.63 3.553-3.105 5.606 2.561-1.99 7.282-3.553 3.105zm-18.04-14.07c-0.7546-18.61 10.51 9.919 0 0zm12.42-2.492c-15.91-20.73 18 9.222 0 0zm-33.32-8.748c-6.978-10.82 24.37-2.042 1.753-3.158 5.919 0.0566 2.424 10.07-1.753 3.158zm152.4-3.527c-9.635-14.27-36.53-37.73-3.552-39.83 3.313-13.5 22.78-32.4 13.02-5.369-24.9 11.44-4.527 30.64-1.98 44.53zm-155.2-6.674c-3.348-11.57 2.838-11.04-12.85-11.78 9.606-0.7116 37.65-5.224 14.01-12.4 27.68-6.713 14.27 28.54 3.451 15.63-1.246 1.578 1.51 17.44-4.614 8.539zm171.9-3.471c10.85-17.17 20.67-18.29 3.336-1.347-0.5152 1.875-10.39 11.74-3.336 1.347zm44.69 2.169c-0.2666-22.57 18.82-24.66 0 0zm-7.759-17.47c-16.07-1.07-15.3-16.9-3.942-7.359 9.109 10.79 33.85-9.321 9.091 7.664zm-145.6-8.67c-7.704-20.56-20.91-23.25 4.502-36.22 5.755-9.891-31.94-0.2171-12.19-20.2 12.41-8.721 38.65-60.09 29.63-19.18-6.064 21.76 26.5 17.12 3.482 37.03-8.547 12.8-17.83 25.14-25.42 38.57zm160.4-4.525c9.774-7.635 21.03-6.447 11.8-0.6728-3.486-3.935-18.11 14.36-11.8 0.6728zm-83.54 1.831c-0.5779-16.34 19.74-36.6-10.28-36.5 13.14-17.16 28.6 6.727 42.31 9.657-15.97-18.44-36.43 24.52-32.03 26.84zm-168.3-2.178c-34.27 1.676 4.523-60.28-5.431-49.73 14.41-10.25 26.02-9.979 36.18 8.974 10.9 3.371 37.75 16.44 12 17.82-10.68-27.71-14.54 11.05-33.4 5.673 10.08 5.255-1.27 19.44-9.354 17.26zm-8.466-6.113c26.63 3.852 21.81-53.48 9.694-14.84 1.259 3.193-20.94 18.21-9.694 14.84zm0.5952-11.98c13.93-0.9349 4.768-33.18-3.307-2.118-3.19 3.211 0.5713 11.7 3.307 2.118zm31.72-11.36c-19.84 6.896-9.078 19.81 0 0zm6.155-5.572c1.977-27.93-44.9-12.66-24.32-3.28 16.11-14.18 19.17 12.65 24.32 3.28zm29.3 34.81c3.451-13.34-30.1 3.77-10.86-11.32 15.77 10.91 9.416-17.83 21.87-6.992-2.425 6.279-11.65 14.8-11.01 18.31zm176.4-0.1608c-30.3-6.2 8.284-17.13 5.723-5.092-16.03-9.623 5.944 10.24-5.723 5.092zm-81.99-13.59c-19.58-18.27 20.33 7.212 0 0zm-82.68-14.52c2.653-20.78 11.27 10.66 0 0zm129 1.165c1.162-13.22-9.686-51.78 20.32-36.14-11.74 9.116-12.76 24.44-20.32 36.14zm-143.3-10.87c-35.37-21.61 33.42-23.97 0 0zm161.7-6.958c-1.877-23.4 13.91 11.65 0 0zm24.27-2.345c-20.3-6.414-5.36-43.52 0.5211-22.6-14.54 25.21 20.42 0.7923 9.757 24.09-3.017 2.781-7.697 0.6659-10.28-1.492zm-166.1-13.78c-15.22-11.49 11.83-10.52-9.246-18.36-38.57-11.65-14.65-62.84 15.46-38.6-19-8.691 2.618 22.09-20.94 27.68 8.088 7.017 33.47 17.48 14.72 29.27zm-17.87-41.38c12.62-31.13-12.72-0.1479 0 0zm-83.11 36.28c-11.22-23.15 33.41-5.513 9.99-6.122-0.8734 5.218-8.575 1.716-9.99 6.122zm220.4-1.69c-5.703-23.33 10.71-2.812 0 0zm27.46-3.955c-19.32-5.293 17.91-21.62 0 0zm-171.6-4.133c-13.06-14.74-2.4-7.6 3.505 2.836zm126.4-0.1701c-2.828-22.47-64.26-2.963-18.8-17.25 9.454 11.47 28.02-1.989 20.25 20.14l-1.443-2.889zm6.813-6.384c14.91-12.5 33.07 6.155 7.764-0.6781-1.814-1.684-8.013 5.659-7.764 0.6781zm-95.28-3.588c-11.14-20.35 13.08-9.116 0 0zm36.18-6.06c-4.357-19.29 20.98-1.894 0 0zm-8.542-4.864c-9.745-10.12-19.49-8.034-6.064-19.62 1.805-17.33 37.08-13.27 6.455-3.713-14.76 25.2 15.99 3.833 12.92 8.073-0.4885 7.58-9.379 9.923-13.31 15.26zm18.17-2.651c4.898-20.85 27.69 1.473 0 0zm13.83-8.109c-5.259-28.53 34.78-18.53 12.1-2.529-3.336-13.77-6.649 3.124-12.1 2.529zm-10.55-4.694c-14.72-11.56 6.266-10.22 0 0zm-184.8-0.4448c-12.49-37.99 51.71-55.71 61.05-15.35-4.889 22.14-19.18-14.35-34.11-7.026 11.97-23.98-35.36 12.1-26.94 22.38zm233.5-3.979c3.295-14.74 19.2-2.661 0 0zm-86.17-5.514c1.223-20.48 9.051 0.6057 1.202 1.088zm50.31-10.75c-16.67-8.923 3.844-34.68 0.7703-6.812 1.764-8.646 1.323 15.39-0.7703 6.812zm-15.98-13.01c4.733-17.36 19.66-33.69 8.37-9.505-1.833 2.552-3.111 12.54-8.37 9.505zm-46.33-2.579c-39.77-11.92 28.83-9.571 6.66-24.2-6.66 7.479-10.23 11.57-11.07-2.346 24.65-5.677 21.01 19.23-0.6828 18.72 0.6307-0.1581 8.685 10.43 5.092 7.817zm45.67-4.178c0.0846-13.79-18.49-1.44-3.552-14.38-2.007-29.88 13.61 14.72 3.552 14.38zm-25.36-3.027c-24.3-6.142 15.83-1.126 1.014 0.8117zm74.53 0.2956c-9.806-29.78 17.79 7.451 0 0zm-118-15.63c-12.09-1.012-7.353-24.43-27.69-7.922-14.58 8.027 5.924-11.93-13.28-13.34-16.84-15.6 19.36 5.135 24.34-0.0396 16.46-0.6403 54.02 17.03 16.63 21.3zm9.557-9.956c-18.86-25.34-15.17 18.77 0 0zm117.6 10.85c-12.96-11.58 20.36-8.988 0 0zm-62.05-14.75c-16.97-19.18 19.97 3.308 0 0zm-25.95-3.535c5.8-22.81 28.36-8.378 0 0zm-44.71-5.278c-3.866-12.22-16.77-4.928 3.417-10.67 5.132 0.8059-0.9559 15.45-3.417 10.67zm77.72-1.977c-9.72-6.603-29.3-29.05-19.1-25.92-7.384 17.83 47.6 9.542 19.1 25.92zm-102-2.852c-13.04-26.65 26.64-2.901 0 0zm48.96-3.52c-8.25-15.99 24.76-9.172 0 0zm11.89-10.65c1.81-23.24 12.08 6.794 0 0zm-46.56-19.01c-24.53-13.48 14.78-37.11 10.77-44.57 20.62-7.32 59.65 43.1 23.69 14.12-12.99-20.68-10.6 18.89-21.44-2.971 0.4514 12.22-2.882 25.65-13.02 33.43zm57.39-15.27c26.3-5.126 16.88-48.26-13.95-49.43-6.645 21.26-14.05-2.998-2.089-9.423-1.239-12.57-22.51-26.44 1.362-12.27-2.23 1.804 6.969 23.7 8.64 15.62 12.2 17.62 35.97 33.53 39.02 0.8548 22-23.04-0.2036 15.57 13.61 14.49-28.83-4.4-12.64 49.36-46.58 40.16zm78.61 1.278c-17.34 2.686-41.11-17.49-16.94-23.55 15.2-44.31 57.56 27.79 16.94 23.55zm16.74-14.24c-11.91-16.13-10.66 12.08 0 0zm-261.1 4.695c3.481-19.96 24.13-18.07 8.122-2.232 1.724-0.5282-13.02 5.81-8.122 2.232zm104.5-8.537c-16.78-9.547 20.76 2.629 0 0zm-84.56-8.049c-6.573-13.03 11.62-31.7 3.71-7.823 14.32 8.548 3.251 6.342-3.71 7.823zm144.4 0.8031c5.552-7.429-12.25-14.35 8.651-5.591 4.712 4.365-6.453 9.434-8.651 5.591zm-11.1-2.621c-12-16.21 21.96 7.369 0 0zm-167-0.8233c2.481-29.41 25.21 0.8006 0 0zm68.74-1.842c-7.687-8.225-31.42 0.6683-8.279-10.29-33.12-32.69 28.3 13.39 8.279 10.29zm-45.52-11.24c-6.858-11.39 16.32-19.35 2.116-0.898l-0.7746 2.348zm102.1-8.767c-6.971-14.53 9.86-30.44 7.132-33.09 6.614 17.19 23.92 7.904 4.009 23.01-3.082 3.24-11.15 4.604-11.14 10.08zm-88.11-2.918c-4.475-17.24 35.88-25.63 11.52-6.871-3.582 4.397-6.742 7.501-11.52 6.871zm37.9-17.38c-31.65 3.096-3.4-28.14 0 0zm7.746-3.904c6.729-7.708-11.37-17.11 7.508-10.06 15.72-31.9 9.259 35.02-7.508 10.06zm90.72-3.708c6.193-17.05-36.83-39.71-11.57-41.96-8.905 18.79 15.56 4.031 5.767 19.21 7.844 10.15 30.61 17.25 7.108 25.55zm23.52 0.0467c-12.5-20.54 32.81 4.659 0 0zm-159.2-5.24c-16.2-16.66 15.44 5.15 1.53 1.643l-1.341-1.44zm71.01-3.176c-20.82-12.94 18.55-29.06 0.0115-10.65-0.7802 3.186 3.774 9.255-0.0115 10.65zm150.1-2.268c-11.01 6.499 3.04-18.46-7.277-4.796-6.522-21.23 13.28-28.09 17.14-6.992 15.65 9.806-0.4152 14.29-9.866 11.79zm-185.4-0.387c-14.88-17.92 15.86-3.342 0 0zm9.798-0.6145c-14.79-16.68-10.07-29.29-3.499-12.83 13.8 5.348 15.77 5.668 5.473 8.52 0.5041-0.3593-1.192 10.34-1.974 4.308zm-56.19-2.93c-23.34 0.3368-4.27-34.38-24.95-37.24 14.42-3.239 37.15 5.367 10.45 7.174 18.26-1.451-3.652 21.52 13.21 13.86 14.49-8.042 14.83 4.301 1.285 16.2zm34.29-17.7c-2.659-12.03-5.549-12.08 8.576-24.41 14.58 7.881 13.57-0.183-2.024 13.89-15.26 3.461 5.692 21.78-6.552 10.52zm63.54-5.986c-15.19-10.91 19.36-18.38-0.3039-3.55 18.23-6.071 7.491 6.404 0.3039 3.55zm-21.07-5.298c5.932-13.22 14.54 10.29 0 0zm105.5-0.2519c-5.127-9.2-16.16-6.124-3.811-22.99 13.7-18.45 32.41 41.9 11.87 11.56-7.221 0.6417-0.9471 19.7-8.062 11.43zm-40.65-3.616c-10.32-10.97 11.14-23.55 1.355-3.388 0.6172 0.1416 0.6469 4.816-1.355 3.388zm-15.59-4.34c1.237-19.81 19.21 8.992 0 0zm-60.93-4.6c-14.02-4.219-15.58-10.33 0.7003-10.19 0.626 0.9048 3.969 13.1-0.7003 10.19zm74.38-5.444c-20.45-10.75 18.46-21.49-1.924-11.54-0.6648 3.97 3.763 7.916 1.924 11.54zm-119.6-2.667c8.385-23.58 20.78 5.889 0 0zm136.8-11.8c-33.73-14.68 40.19-43.78 15.24-7.774-3.145 3.365-9.733 13.07-15.24 7.774zm-54.73-5.053c-14.39-3.973-16.8-31.17 1.772-15.66-11.59 8.302 22.38 23.93-1.096 16.35l-0.6765-0.6866zm-78.01-0.9878c-29.32-11.79 37.68-8.138 3.683 0.2451l2.762 4.221zm92.6-2.759c-13.39-18.08 21.98-30.01-8.999-42.03-36.52-16.69 31.16 7.856 21.73 4.659-7.688-13.1 18-8.59-7.063-13.26 4.218-14.19 24.48-23.54 19.47-0.9788 7.489-23.13 29.94 12.07 2.541 4.43-17.64 9.365-15.18 34.93-27.68 47.19zm-92.37-12.98c-12.66-14.9 3.798-0.8401 5.758 2.137zm10.16 7e-3c-1.58-25.91-30.21-19.27-13.53-43.07 10.16-18.19-31-22.98-11.56-20.89-13.57-27.01 23.22 18.23 22.13 27.78 18.31 2.397-17.13 21.25 6.325 28.19l-0.1235 3.492zm157.3-11.76c5.916-22.19 13.39 1.874 0.167 0.6065zm-94.05-7c-14.89-7.546 5.269-7.961 4.793 0.3305l-3.611 1.146zm-114.1-19.74c-8.725-18.21 2.975-24.33 5.666-3.977 11.73-7.643-10.66-40.1 7.473-17.33-7.176 6.376 2.015 24.03-13.14 21.31zm-37.87-16.82c-3.174-16.16 12.25 7.761 0 0zm11.7-3.344c-2.362-21.63 27.71 2.43 2.484-3.261-0.5387-1.343-1.948 11.88-2.484 3.261zm92.96-3.757c-21.28-8.717 24.87-0.2993 0 0zm9-7.862c-28.13-2.784-8.246-48.18 0.3244-10.95-1.937 6.343 13.15 20.73-0.3244 10.95zm102.9-7.813c-0.2743-21.57 7.968 14.18 0 0zm-202.2 0.6976c-13.93-24.55 35.29-12.76 0 0zm229-0.3107c-28.22-2.037-12.44-19.51-19.64-18.72 4.466-19.38 24.61-4.819 21.35 7.116 10.28-11.16 11.32 20.64-1.703 11.61zm3.983-2.359c-6.796-9.957-24.13-14.75-7.535 0.434l3.764 0.5506zm-214.8-1.937c1.984-16.64 22.75 10.51 1.788-3.049 5.264 0.9365 1.52 7.256-1.788 3.049zm13.1-10.57c-21.95-14.73 24.82-0.1284 1.87 3.272zm-22.4-7.993c-15.81-6.018-25.28-13.11-3.729-9.278 0.7915-22.93 25.53 23.7 1.459 0.7952-0.9009 3.551 9.097 10.43 2.271 8.483zm45.72-20.87c11.94-14.58 5.386 5.118 0 0zm71.06-12.83c-7.911-17.75 13.95-0.9099 6.421-6.477 1.431 3.995-1.667 11.97-6.421 6.477zm-19.22-13.69c16.14-11.9-7.775-22.59 19.1-17.94 19.28 19.79-15.19 17.12-19.1 17.94zm-127-8.796c7.891-17.74 10.62 2.549 0.5265 0.6387zm20.52-7.537c-21.62-9.979 17.65-11.1-0.295 2.981zm6.332-61.14c-18.89-21.9 20.47 0.1463 1.397 0.2302z" fill="#8f9090"/>
   <path d="m365.9 809.5c-25.9 1.951 5.22-40.25-5.209-9.404l2.736 5.459zm-65.27-41.21c-20.17-15.5 9.505-18.77 17.28-33.69 18.94-8.264 6.471 16.92 4.898 11.34-4.314 6.499-14.46 25.31-22.18 22.35zm-170.6-0.3539c-20.9-14.6 22.93-12.84 0 0zm155.3-15.9c10.94-24.97 16.02-13.11 1.566 0.2931zm-5.567-13.18c7.335-3.692 6.131-28.16 10.53-17.58-2.513 5.782 2.136 19.31-10.53 17.58zm-92.77-22.45c3.398-13.06-14.76-25.56 9.677-15.9 22.82 1.992-5.968 10.21-9.677 15.9zm-6.915-2.117c-0.784-14.83-23.15-15.93-7.076-24.55 1.537 8.558 15.91 18.58 7.076 24.55zm-83.9-0.859c0.3261-24.54 22.43 5.781 9.65-9.602-3.921 1.451-5.072 12.78-9.65 9.602zm195.2-2.891c2.179-15.94 22.28 12.2 1.876-0.6581 3.036 4.283-5.733 6.481-1.876 0.6581zm-183.1-11.73c-8.253-22.61 17.24 3.83 0 0zm84.19-14.4c-13.14-26.88 15.15-7.581 0 0zm154.9-4.52c3.91-20.33 12.89 10.68 0 0zm-144.8-32.27c-15.22-17.69 13.35-5.923 0 0zm22.06-6.886c-19.87-7.459 22.04-44.78 2.398-14.61-5.543 1.215 1.468 18.78-2.398 14.61zm49.45-23.11c-6.617-11.82-14.51-6.374 3.404-9.99-24.7-8.091-18.06-17.55 4.511-18.79-10.1 1.025-0.2631 36.99-7.915 28.78zm-84.17-92.03c-5.11-15.62 36.41 0.5782 5.775-1.975l-2.537 2.121zm57.91-62.4c1.942-26.01 7.178 3.714 0 0zm13.78-12.85c-19.64-16.98 22.66-15.78 0 0zm-26.35-3.027c-0.2011-24.07-19.42-7.506-26.1-10.54 10.84-26.83 38.54 16.62 47.7-14.19 29.63-11.86-5.804 9.299-11.58 17.42 4.724-4.501-10.64 14.21-10.03 7.306zm2.86-40.68c-2.178-2.893-18.51-5.202 0.5402-8.598 8.459 1.337 9.666 11.2-0.5402 8.598zm-114-2.15c-15.66-7.045-14.61-23.69-2.087-6.66 1.828-22.33 13.83 17.06 2.087 6.66zm-49.07-38.85c-10.93-17.59 28.54-18.95 3.299-2.677zm127.7-21.19c5.072-16.27 10.38-29.75 8.82-2.636 1.044 6.115-5.735 7.247-8.82 2.636zm-7.168-5.957c-9.283-18.62 22.76-8.907 0 0zm30.15-2.184c18.26-8.212 13.68-27.77 11.2-30.36 22.99-0.2514-7.533 32.99-11.2 30.36zm-70.92-14.67c-10.6-8.177 6.305-20.25-2.819-6.196 0.2773 3.315 15.64 16.1 2.819 6.196zm10.61-1.259c6.103-23.49 17.82 1.452 0 0zm-65.42-13.41c-14.87-12.81 11.42-42.96 1.857-9.963-0.7983-0.257 1.326 14.91-1.857 9.963zm-8.353-40.73c-7.516-16.99 16.29 4.485 0 0zm4.507-14.79c-18.39-17.87 41.5-1.687 0 0zm19.11 0.1631c7.925-2.273 5.005-19.67 8.759 0.0508l-2.746 1.365zm-51.31-21.65c-9.088-22.54 10.13-12.18-1.623 2.587z" fill="#7f8081"/>
   <path d="m436.5 811.3c-19.91-8.53 26.77-18.87-2.044-6.013-1.416 1.637 10.32 9.395 2.044 6.013zm-69.23-1.815c-16.85-18.56 1.017-11.06 2.724-6.108 2.371-20.98 11.03 6.961-2.724 6.108zm6.271-16.98c-20.22-13.32 28.3-1.318 0 0zm-84.38-38.79c-2.716-16.26 22.4 7.384 5.616-14.82 20.81 14.4 1.027-24.41 21.76-11.67 0.7676 10.89-15.74 32.64-27.37 26.49zm-8.148-15.84c-13.64-17.97 11.14-10.87 0 0zm3.287-6.631c0.504-13.52 15.66-9.224 0 0zm6.399-13.2c8.179-21.22 4.186 10.3 0 0zm-129-6.921c15.2-29.35 13.8 7.315 0 0zm-50.51-14.96c13.86-31.29 19.77 3.936 0 0zm85.6-32.35c-4.706-11.63-41.05-21.38-10.99-20.25 5.944 3.468 18.76 12.69 10.99 20.25zm17.91-13.48c-18.58-10.78 6.614-18.51 0 0zm67.39-29.76c-22.11-6.781 13.64-9.682 0 0zm-15.31-12.13c-19.67-9.101 22.48-3.142 0 0zm-3.097-12.05c-8.764-14.48 23.58-5.617 0 0zm-64.03-27c7.164-16.7 11.06 5.099 0 0zm-20.85-12c-19.97-11.49 12.84-12.63 0 0zm14.17-37.86c-1.934-25.99 22.16 10.49 0 0zm63.05-46.22c-16.46-10.38 4.69-37.82 3.654-9.825 10.35 14.19 7.502 0.9152-3.654 9.825zm13.33-4.851c-6.045-17.03-13.24-52.4 10.1-24.52 23.44 2.874-5.347 16.25-10.1 24.52zm-35.17-12.21c-4.418-13.38-8.95-12.78-8.644-20.47-18.49-4.452 13.49-2.148 11.2 12.09 14.56-8.498 1.848 5.757-2.556 8.387zm1.389-19.83c8.148-16.13-37.71-8.836-7.639-16.11 16.76 13.15-16.04-23 9.765-2.594 11.57 6.035 17.02 21.92-2.126 18.71zm-29.4-19.86c-5.981-6.911-22.7-16.77-7.172-12.71 12.23 1.005-2.024 4.542 10.88 5.911 1.268 2.339-0.1953 10.45-3.713 6.801zm28.89-61.02c-8.57-9.208-21.31-24.31-25.21-19.78 4.338-15.95 18.09 18.17 23.66-6.272 14.15-24.89 40.88 31.98 11.67 8.018-10.8 4.116-16.25 10.23-10.12 18.03zm-155.8-3.655c-30.89-32.22 15.15-4.955 0 0zm106.6-15.8c1.746-9.89 2.432-29.62 4.039-10.8-3.333 6.978 12.4 16.49-4.039 10.8zm8.77-8.172c12.07-21.32 19.98 7.938 0 0zm43.39-20.92c-42.99-11.57 27.79-4.585 0 0zm-45.72-1.119c3.606-14.14 16.1-24.33 3.695-3.299 0.5508-0.2777-7.982 9.476-3.695 3.299zm-90.37-8.498c5.647-19.62 4.616 16.57-0.4011 0.8183zm-70.11-32.56c9.307-16.35-21.57-5.695 2.618-13.25 5.95 1.063-3.176 20.45-2.618 13.25zm64.84-3.444c-13.41-17.92 42.99-6.061 8.631-2.631-7.607-10.15-5.577 2.104-8.631 2.631zm-9.685-6.659c-19.89-11.62 18.68-7.726 0.5437 0.8706zm-20.35-18.75c-16.11-18.15 10.23-12.24 0 0zm23.83-30.02c-23.15-15.23 3.81-10.61 1.984-0.0427l-1.138 0.693z" fill="#7d7e80"/>
   <path d="m402.3 851.9c11.55-10.9-16.09-42.09-14.11-20.71 1.09-12.6-5.822-37.77-8.3-12.44-24.9 3.5 6.854-36.37-11.48-13.69-13.85-12.33 0.9062-16.63 11.16-14.88-8.913-18.51-25.56 6.25-34.54 8.633-5.055-19.32 13.38-32.23 17.98-37.08-5.076 26.94 32.34 18.84 35.95-0.9204 26.72 12.14-36.33 15.97-11.75 41.68 10.8 9.573 29.23 5.644 33.42 26.43 13.15-6.323-16-28.39 12.1-17.3 9.283-8.861 20.72-31.74 15.83-3.372-16.36 8.125-0.133 10.32-15.2 16.82 9.07 8.937-12.15-7.574-3.421 12.51 4.994 10.5-13.14-19.71-13.45-0.429 5.389-21.83-39.11-24.1-10.7-6.26 11.88 4.889-2.471 14.03-3.496 21zm44.33-3.498c7.922-8.093 6.457 14.45 15.5-3.54-15.07-10.14 27.13-12.48 10.07 1.949-7.05-4.006-23.41 16.51-25.57 1.591zm3.425-7.211c5.851-16.19 13.42-39.3 6.265-7.764-1.195 0.295-3.032 10.74-6.265 7.764zm-26.76-36.88c6.412-15.14-18.58-15.51 3.549-14.42 12.01 1.308 2.077 12.4-3.549 14.42zm-22-19.05c-5.911-12.97 24.05 2.611 0 0zm16.56-2.741c0.6218-22.05 21.15 4.089 0 0zm-22.89-23.55c-8.273-17.42 2.114-28.43 2.249-4.29zm-48.4-13.63c6.723-8.447-4.327-16.82 3.889-16.02 12.66 0.1272-0.7789 12.66-3.889 16.02zm-46.7-1.888c-1.449-24.62 10.35 3.125 0 0zm25.1-5.554c-9.639-31.94 8.078-12.13 0 0zm45.22-6.784c15.28-26.39 20.77-3.196 0 0zm-61.63-4.824c-10.46-21.46 24.08-2.793 0 0zm140.1-3.617c0.7707-22.87 25.48-0.5645 0 0zm-80.17-4.222c-0.287-3.344-21.23-13.68 0.165-9.422 6.974 3.243 14.93 10.05-0.165 9.422zm-14.63-4.582c-15.27-19.07 13.24-12.8 0 0zm-185.4-1.365c-3.376-17.22 17.62 4.381 0 0zm145.5-0.9611c-14.55-13.19 15.16-18.61 4.168-4.869-13.75-17.94 7.145 12.85-4.168 4.869zm63.97-3.395c-27.41-24.17 17.27 0.488 0 0zm-201.5-14.47c20.06-46.59 11.14 16.07 0 0zm-77.73-10.18c-7.821-14.57-13.35-21.4 8.955-14.27 12.62 6.409 1.755 19.28-8.955 14.27zm101.3-13.82c-5.642-0.0463-6.606-28.6-0.8514-18.08 27.49-11.67 9.236 20.75 0.8514 18.08zm116.8-14.26c6.089-7.563-22.44-11.44-2.927-11.88-2.148-6.669-1.328-25.41 5.308-9.334-10.34-21.72 15.53 7.036 14.03-14.65 25.78 19.65-27.64 11.58-15.78 26.97 12.74-8.532 3.099 13.71-0.625 8.891zm-30.21-3.254c10.94-2.192-0.5538-30.29 10.94-9.726 17.99-7.319-8.891 8.692-10.94 9.726zm47.39-1.656c0.5238-5.099 15.55-7.682-1.724-8.721 20.65-1.433 13.21 12.27 1.724 8.721zm-57.05-3.529c-7.881-12-27.36-23.17-0.4019-19.54 9.74 3.301 15.19 18.64 0.4019 19.54zm-94.33-1.332c2.284-9.261 9.074-21.25 8.218-21.18 14.8 1.162 17.59 19.21 3.75 11.53 3.71-24.67-8.272 15.69-11.97 9.651zm67.48-1.047c8.348-12.52 18.11-3.25 0 0zm85.43-4.123c19.19-2.196-6.558-39.5 6.125-24.74 22.75-2.289 5.981 20.95-6.125 24.74zm-40.91-4.655c-1.317-21.18 28.26-9.61 2.63-2.814-0.7909 1.172 1.544 8.584-2.63 2.814zm-11.74-16.96c-14.39-14.41 11.25-38.54 1.613-9.27-0.5609 1.173 4.021 12.41-1.613 9.27zm11.59-27.85c-1.6-13.73 25.26-57.8 20.4-30.79-6.984 7.962-16.48 19.84-20.4 30.79zm-32.72-2c-0.0435-10.21 37.7-13.39 14.34-2.013l-7.484 1.355zm-1.006-10c-22.91-12.03 36.58-6.58 0 0zm-101.8-45.59c-30.67-8.902 36.49-33.14 2.849-9.459 2.21 4.282 1.317 13.8-2.849 9.459zm67.61-16.8c12.14-6.456 18.01-5.982 4.329 1.946l-2.593-0.0824zm-27.7-0.2415c-1.806-17.09 22.47 4.007 0 0zm-41.3-6.413c8.826-12.99 23.39-31.02 8.212-6.951-1.419 1.414-4.64 13.23-8.212 6.951zm34.86-1.987c-35.24-17.93 27.1 2.503 0 0zm30.2 2.58c13.07-19.99 24.37-0.3281 0 0zm-14.67-3.865c-18.91-19.57-6.274-12.07-8.257-18.03 23.03-11.43-8.14 15.73 13.37 16.48zm41.16-0.9717c-2.98-19.19 26.58-16.15 4.905-6.075 1.11 2.357-12.12 13.07-4.905 6.075zm55.05-15.38c33.25-31.39-43.84-45.23-36.69-66.46 13.05-24-26.54 19.78-30.47-9.459 24.52 2.166-4.205-29.44 15.75-5.424-21.68 34.26 32.18-22.97 20.37 12.26-12.73 14.36 46.49 22.91 42.06 29.74 26.63-29.11-0.3143 40.63-11.01 39.35zm-65.49-2.239c-3.577-24.41 26.05-25.59 17.49-13.87-26.5-10.4 16.23 18.25-10.19 5.157-3.908 0.8161-3.494 16.18-7.295 8.715zm-56.68-5.363c-7.268-12.8 23.21-8.997 1.301-3.319-0.3266 0.859 3.503 8.075-1.301 3.319zm81.13-12.39c-14.33-9.627 7.919-26.43 2.649-3.865 11.68-1.569-2.27 7.458-2.649 3.865zm-186.7-21.67c5.581-12.51 16.3 2.206 0 0zm147.9-7.241c-17.62-10.26 5.531-7.212 4.676 0.2902zm-18.41-15.55c-1.164-19.24 30.44-13.1 8.493-0.2653 0.6155 1.617-15.63 4.863-8.493 0.2653zm-126.3-3.547c6.821-15.17-16.09-35.67 6.515-13.91 5.349 6.508-3.553 9.521-6.515 13.91zm114.8-9.333c0.7496-15.98 23.35-9.204 0 0zm59.22-9c-10.8-9.021-4.37-27.41 0.8608-9.514 0.6805 18.83 14.29-14.81 4.922 8.637 0.6709 4.374-6.417 5.069-5.783 0.8761zm18.1-2.526c-16.25-25.36 21-14.69 0 0zm-178.9-10.47c-8.578-8.185-20-6.483-24.38-14.39-18.15 10.28-1.214-13.98 6.656-7.382-21.62-7.756 5.436-5.536 10.94 0.245 6.465-6.65 12.94-48.07 15.93-31.79-6.911 25.44 44.74-9.195 46.13-21.32-1.914-8.312 24.69 36.85 37.94 11.13 18.13 22.69-30.74 44.63-48.34 29.43-4.876-40.08-67.69 17.83-37.73 24.2-4.195 6.252 0.896 17.74-7.13 9.869zm164.1-14.33c23.88-16.06-20.87-55.18-7.689-60.16 3.914 22.14 26.86 40.73 31.32 46.55-3.519 5.697-17.4 21.98-23.64 13.61zm-237.5-4.222c-2.177-12.94-3.757-39.6 10.56-18.59 18.82-4.477 2.282 25.66-10.56 18.59zm187.9-11.91c-7.121-35.48 32.19-17.48 23.33-2.657-16.79-27.31-11.25-10.57-23.33 2.657zm-138.6-14.59c-4.476-14.22 20.4-25.53 17.37-8.464-5.064 1.528-17.73 7.984-17.37 8.464zm212.1-1.503c-24.16-4.299-4.623-11.38 5.163-1.653zm-173.4-16.04c-5.069-23.26 2.455-46.49-11.78-61.83 7.219-14.83 14.42-0.6389 20.95 0.7906-25.8-1.398 20.08 23.84-8.684 13.97 4.683 29.17 33.36 1.127 27.34 5.148 16.41 9.179-34.03 26.47-27.83 41.92zm85.66-1.557c-14.68-24.83 20.39-55.81 46.78-44.07 6.683 6.301 25.68 13.42 7.028 26.56 1.332-22.11-29.33-8.133-19.39-0.7584-12.13 17.39-25.27 8.631-28.95-0.498-11.34 3.392 15.47 25.43-5.468 18.77zm-173.7-1.163c-26.64 0.8803-6.033-14.65 0 0zm153.5-1.828c-14.59-9.256 11.58-1.357 0 0zm107.4-10.66c-4.804-16.95-24.51-10.15-7.213-25.11 0.1395-11.21-10.62-16.48 9.803-8.1 11.57 10.62-0.2048 16.27 8.551 30.12 0.3233 6.482-7.65 7.812-11.14 3.095zm-253.9 0.7875c-29.79 0.8879 14.79-13.26-2.114-2.554 4.184-4.152 6.533 5.84 2.114 2.554zm144.2-0.6945c-20.04 4.806-26.33-31.27-8.436-7.65 1.885 1.919 13.95 4.506 8.436 7.65zm-137.3-1.847c-0.1338-10.51-15.27-16.09 3.199-4.773 6.655 1.872 7.462 10-3.199 4.773zm-26.69-9.563c0.5006-17.87 25.97-10.49 9.472-5.203-2.05 7.617-2.698-1.609-9.472 5.203zm136.9-19.27c13.29-24.38 5.464 12.56 0 0zm-112.9-4.228c-14.24-6.123 4.805-40.29 2.317-15.45 26.66 13.05 5.619 7.595-2.317 15.45zm48.46-31.09c-7.103-13.46-15.94-40.84-26.31-37.09 19.68 4.138-13.23-17.27 5.039-19.66 15.21 17.76 7.242-31.11-10.34-20.43-2.748-20.59-34.56-10.32-7.333-25.53-16.51 3.065-26.83-14.55-1.927-8.543 11.53 5.9 14.93-9.88 22.31 13.34 1.653 17.45 17.64 67.34 33.63 47.53-16.53 4.095 5.887-15.87-16.29-18.87-19.45-3.213 24.22-3.43 20.57-7.009 5.824 18.58 10.04 17.82-3.443 13.24 9.147 9.975-8.613 6.269 9.871 16.35-7.878 11.65 18.57 8.89 4.981 17.44-14.67-1 4.358 30.93-20.13 28.47-2.353 2.604-9.025 6.236-10.61 0.7634zm-8.421-45.12c-6.773-15.92-8.387 12.63 0 0zm21.3-22.27c13.83-20.25-26.48 5.444 0 0zm-33.58-23.05c-21.57-15.64-9.973 12.37-0.0034 2.26l0.4684-1.212zm-14.86 49.22c-20.17-21.71 4.064-37.54 20.47-18.6-24.83-13.33-13.65 6.85-20.47 18.6zm-10.94-128c-7.881-11.33 20.28 12.63 0 0zm1.355-72.8c-10.74-14.62 31.08 1.162 0 0z" fill="#707071"/>
   <path d="m404 851.3c19.98-12.34-20.66-34.1 4.466-30.28 12.11 13.04 26.45 16.73 4.175 31.21l-4.212 0.4071zm9.32-24.02c-6.754-20.65-23.17 10.97 0 0zm36.38 22.85c19.96-20.17 2.181-60.01-7.508-57.36 17.56-12.5 37.05-6.093 22.36 17.03-4.722 15.83 27.03 1.834 14.7 27.28-7.892 8.309-20.16-13.96-20.55 10.37 0.9983 3.055-14.9 6.742-8.996 2.673zm-20.72-15.13c-2.263-29.15 13.08 9.362 0 0zm-8.992-15.31c-26.98-0.9944 1.6-15.45 3.387-21.96 4.49 7.826-15.03 21.29 5.318 21.78-2.183 1.399-6.716 3.123-8.706 0.1805zm-34.94-4.221c-10.02-18.47 16.83 6.321 0 0zm6.02-6.08c-14.29-15.83 1.979-13.3-2.707-25.2 15.21-3.182 26.54-34.42 7.4-17.53-14.08 0.9005-7.411 1.905-20.37 13.86-12.08 7.409-21.68-38.01-3.876-22.91-17.35 0.2189 14 9.828 3.878-4.544 15.96 11.29 11.61-0.7263 12.07-7.219-8.828 1.656-26.7 2.232-9.22-5.559 15.94-5.747 36.09-16.38 24.7 10.04 7.847 5.611 36.51 17.63 27.7 40.99-12.96-2.442-44.12-7.823-29.54 15.12-14.82-4.733-13.79-10.29-5.588 5.526l-0.6154 0.0364zm14.35-24.44c34.8-32.9-28.33 1.551 0 0zm17.61-4.869c17.92-3.962-19.35-10.07-2.674 1.646 0.5111-0.1358 2.615-6.778 2.674-1.646zm-21.94-22.84c-0.8247-17.73-16.74-20.85-3.276-2.245-2.607 1.343-11.03 7.15 3.276 2.245zm35.43 30.09c2.921-27.67 20.55-2.667 1.231 3.28l-1.23-0.9778zm-10.7-32.4c7.708-11.31 15.68 5.338 0 0zm-75.18-11.66c-4.665-25.13 40.55-28.99 10.5-9.953-2.497 4.031-4.976 9.623-10.5 9.953zm37.33-10.17c-1.186-20.03 37.9-7.494 5.674-4.544-0.0504 3.359 3.318 11.01-5.674 4.544zm-61.63-8.57c-9.141-3.683-14.18-15.87-9.779-20.49 6.489 2.774 2.345-34.79 10.22-11.28 7.504 12.52 10.35-19.85 11.46 4.784 22.19 10.58-1.05-13.26 21.67-7.349 16.69-19.74 5.364 21.97 17.37 18.55-19.35 17.39-26.75-19.85-32.31-1.118 21.71 22.58-9.121 11.31-18.63 16.89zm3.664-7.747c8.186-15.15-14.99 4.123 0 0zm118.6-7.492c-16.77-20.98 26.24 3.459 2.761-0.937 1.712 2.933-3.94 4.43-2.761 0.937zm-134.4-42.37c-10.91-22.4 45.22-29.89 12.08-14.37-3.429 5.041-4.313 14.12-12.08 14.37zm-6.21-23.49c-6.11-25.43 15.22 10.36 0 0zm39.31-1.638c12.67-14.29-5.235-34.22-3.042-27.32-13.76-9.957-9.215 19.94-26.39 10.95-23.98-0.9288 25.48-16.53 1.649-29.45-21.46-15.83-19.91-20.9-2.997-40.52 1.881 2.178-15.33-15.06 1.653-13.04 16.5 12.26 13.88 36.47 35.54 37.77 5.365 8.425 16.81-35.8 31.61-7.306-8.521 24.56 31.19-14.77 27.6 13.64-23.83 31.48 48.23-39.95 23.13 3.52-8.097 21.98-53.11 33.07-37.62 6.095-20.62 4.138-44.12 14.41-30.68 41.97-0.5 16.25-23.27-6.834-20.46 3.688zm-14-44.89c-3.589-19-10.98 12.38 0 0zm53.63-3.628c-6.199-32.12-17.03 5.727 4e-5 8.7e-4zm-199.7 45.66c0.326-16.15 26.88-5.708 0 0zm81.67-56.91c11.44-27.99 25.92-0.6616 1.965 2.363zm-21.45-11.41c-8.52-19.17 13.33-12.84 0.6938-27.65 2.875-32.48 48.99 1.39 37.94-30.43 26.4-12.56 5.784 36.19 6.61 26.12-3.791 14.68 12.08 10.57 7.837 15.86-17.37 7.892-25.54-22.6-33.09-6.972 8.524 15.65 16.23 11.77 28.71 15.25-14.67 8.263-35.73-11.71-48.7 7.816zm25.35-32c-2.899-15.66-27.89 4.742 0 0zm-121.6-15.1c9.653-12.61 24.15-44.67 32.14-34.19-0.1118-6.139 21.85-15.82 16.66 2.154-12.49 6.391 27.21 21.57 3.991 4.891 8.09-18.65 10.64 15.39 23.61-2.446 11.88 18.46-29.56 20.56-38.44 6.07-16.65 0.1574-21.76 22.11-37.95 23.52zm83.45-0.8998c-1.824-18.64 25.75-28.16 9.318-4.898-0.482 3.804-6.056 11.13-9.318 4.898zm166-6.333c-6.615-14.73 15.37 5.694 0 0zm-126-5.123c16.97-9.663-26.35-23.14-0.2681-27.03-10.17 8.779 33.92 28.19 0.2681 27.03zm47.08-11.12c-10.75-20.13 20.41 0.4317 0 0zm-31.27-2.613c1.273-12.23 27.65-4.312 26.35-16.71 1.561 10.54-19.69 16.76-26.35 16.71zm-55.72-1.398c7.688-14.38 18.87-39.64 27.84-11.19-4.29 12.09-20.56 9.679-27.84 11.19zm23.91-12.53c-11.58-23.21-15.23 9.635 0 0zm-75.08-3.222c4.8-15.49 10.63 5.726 0 0zm134.3-3.333c2.75-13.11 17.47-43.7-3.574-25.4-30.88 7.149-65.09-45.99-18.07-38.03 4.33 7.661 28.64 20.46 46.28 5.359-7.789 19.52-14.99 39.35-24.63 58.06zm-4.576-26.75c7.268-12.69 27.11-16.96-0.7251-20.37-3.147 4.029-4.918 25.77-9.287 16.04 1.347 3.005 8.97 10.43 10.01 4.337zm-4.667-14.39c-17.07-30.5-30.81 5.851 0 0zm-61.29-14.48c14.02-10.19-16.84-44.52 4.293-21.78 1.304 13.2 35.39-5.415 14.91 12.29-6.101 3.726-12.51 6.96-19.2 9.494zm-165.2-2.272c14.46-12.78-29.57-34.29 2.084-36.59 13.76 11.82 12.36 10.93 2.192 16.28 3.643 12.91 19.52 13.77-4.276 20.32zm244.4-4.289c-21.1-27.56 25.6 12.78 0 0zm-40.05-8.232c5.206-13.15 29.59 11.88 0 0zm-18.66-12.65c-14.84 0.5442-41.56-20.22-9.637-14.49 26.22-9.81 4.262 7.179 11.13 3.118 7.146-0.0566 6.17 15.5-1.492 11.37zm-52.77-5.19c-16.82-14.13 30.47-6.181 10.22-23.29 2.396-20.63 2.927 25.34 14.44 2.352 21.77 7.084-13.79 9.926-18.58 17.56-0.7647 0.9895-6.477 0.3675-6.08 3.378zm55.14-18.24c29.82 1.884-8.813-33.19 15.55-15.64 5.487 8.602-6.747 21.54-15.55 15.64zm-63.61-3.579c-0.52-13.49 22.65-34.91 18.75-9.48-8.843-13.21-10.72 9.942-18.75 9.48zm84.92-11.11c-17.46-4.136-58.74-33.54-35.62-44.99-1.938 3.855 33.04-3.044 12.11 10.9-15.84 7.26 18.73 1.986 4.995 12.74 8.398-1.236 40.49 16.29 18.52 21.34zm-8.315-10.73c3.604-5.471-23.15-14.45-18.25-8.091-2.108 11.92 15.52 1.793 18.25 8.091zm-10.32-26.95c-15.38-12.68-12.62 4.105 0 0zm-172.7 28.86c-2.823-28.86 42.56-45.31 36.86-62.19-12.9 4.234-17.99 21.02-26.67 0.9041 7.179-8.138 16.55 6.861 2.644-9.523-6.351-26.42 17.76 22.66 20.29-1.047 20.22 29.75 28.63-44.32 28.25 0.5979-1.967-5.319-7.41 16.53-9.691 18.9-0.4506 28.25-19.27 44.74-49.66 52.9zm196.6-9.556c1.584-30.08 11.16 0.6951 0 0zm-284.9-16.81c4.526-15.61 21.38-0.9741 0.1392-0.4734zm246.6-37.63c21.82-31-3.068 16.08 0 0zm-34.25-3.306c-3.491-9.591-14.99-28.21 3.505-16.44 11.08-30.33-59.95 18.87-28.91-6.809 6.944-18.45 58.15-22.63 48.1-13.31-26.72-7.248 1.377 33.6-19.99 35.37l-0.8104 2.168-1.897-0.9783zm49.96 0.8353c2.477-25.58-21.65-18.97-26.39-29.1 4.261-8.577 41.67-11.18 24.85 6.562 22.94-8.552 12.87 25.31 1.539 22.54zm-127.2-7.863c-16.3-0.9333-3.439-26.57-17.47-2.861 7.689-20.58-10.55-2.578-4.162-18.23 20.25 1.303 17.96 15.02 25.57 18.14-5.866 0.2429 4.619 10.22-3.934 2.949zm31.26-5.481c6.685-13.27 3.18-22.85-4.119-28.37 28.34-6.356 19.46 28.44 4.119 28.37zm67.41-5.587c-21.14-10.68 11.09-9.731 0 0zm-95.94-2.746c-28.69-21.77-1.794-23.43 0 0zm117-16.64c14.34-7.564 16.75-0.7724 2.748-0.5708l-0.9947 2.19zm-99.76-24.12c-0.6422-22.5 15.13 6.509 0 0zm-110.7-5.549c-20.43 1.771-9.544-44.47 4.419-23.07-26-4.378 3.802 16.45-4.419 23.07zm47.89-3.617c17.06-24.56 7.731 11.72 0 0zm76.61 0.6476c-16.99-19.54 29.81-42.28 19.09-18.81-10.03 2.894-22.5 14.41-19.09 18.81zm-19.71-0.5725c-5.209-7.295-26.74-2.813-10.02-13.9-20.33 6.92-20.78-29.65-41.28-6.013-14.83-3.997-8.556-35.41-29.87-15.39-22.99 21.04-11.14-40.72-32.16-35.11-16.8 1.801-38.93-13.76-12.46-18.73 13.62 5.575 35.78-3.183 49.72-13.66 18.77-2.199 21.4 37.2 5.567 26.17 12.33-13.14-28.09-18.12-11.99-1.037 4.347 11.29 25.25 20.77-0.3415 11.26-33.45-4.711 11.6 41.23 19.01 7.445 6.476-23.32 28.24-47.59 33.74-15.64 10.07 15.13 7.099 9.428-0.4672 15.21 6.92 7.718-23.91 8.022-7.443 23.79 11.78 5.455 26.4 6.151 4.972 4.865 19.4 10.1 8.938 8.859 9.578 11.13 3.181-20.96 49.22 1.956 21.87-0.5345-3.065 10.72 25.95 16.66 1.579 20.15zm-48.62-31.14c-2.951-13.96-17.06-4.413 0 0zm-48.31 24.97c-0.03263-15.77 12.45 10.15 0 0zm29.33-7.772c3.883-12.24 19.2 6.419 0 0zm65.12-15.31c-9.746-19.04 9.829-11.61 0 0zm8.585-0.9089c-8.37-12.07 1.949-22.15 1.884-5.371 11.81-2.628-5.554 14.04-1.884 5.371zm-162.4-59.83c-5.051-0.5312 2.664-19 2.686-12.89 7.911 1.747 6.057 17.13-2.686 12.89zm28.42-18.35c-30.61-13.86-3.805-20.49 9.857-5.014 4.777 7.675-5.411 9.692-9.857 5.014zm31.86-22.32c-18.2-36.11 10.34-8.723 0 0zm4.491-7.233c-2.639-20.72 16.44 10.55 0 0zm-41.08-55.16c2.743-14.12 30.83-15.82 5.649-2.523-1.583 1.347-3.816 1.609-5.649 2.523z" fill="#4c4d4f"/>
   <path d="m403.4 827.6c-7.12-18.49 27.02 9.251 0 0zm57.91-8.232c15.11-22.15 5.267-44.62-19.89-25.48-23.4-6.983 8.674-33.93-3.48-7.467 13.22 5 3.888-34.21 23.89-28.97-15.79 17.63-8.346 32.13 11.89 20.45 17.13 11.18-20.84 32.13 6.379 22.69 5.376 11.92-7.378 22.53-18.79 18.77zm-53.99-6.486c-17.85-13.84-5.92-37.49 11.72-17.2 3.581 4.992-7.047 22.01-11.72 17.2zm-1.246-38.31c14.37-20.04 0.9815 16.68 0 0zm24.17 1.799c-1.669-9.587-23.83-24.1-0.0233-17.18-9.444 5 12.49 16.42 0.0233 17.18zm44.4-2.15c-0.8393-25.69 10.24 7.416 0 0zm-105.3-11.17c-6.05-6.107 13.27-24.51 3.254-0.7131zm61.33-12.35c-12.09-17.29 14.54-4.112-0.7447 2.556zm28 1.439c21.98-17.71 13.83 2.993 0 0zm-57.8-7.08c22.78-26.38-33.23 5.625-6.471-14.39 18.39-6.822 14.39-9.856-0.593-8.278 18.41-11.27 19.32-13.39 22.61 8.691 17.01 14.18-18.78 0.0132-15.55 13.97zm-21.24-10.8c7.619-24.18 16.66 2.53 0 0zm53.37-3.107c9.19-9.292-13.45-16.64 6.873-9.842 2.212-11.07-30.58-32.42-3.58-24.59 14.91 8.645 9.385 26.86-3.293 34.44zm-49-28.51c-28.39-5.317 19.08-33.81 6.598-11.85-1.989 3.882-2.545 9.43-6.598 11.85zm-14.06-63.84c-29.61-26.49 30.64-50.67 25.67-28.93 0.3702 1.119-33.88-13.86-26.97 10.49-1.99 4.509 2.132 17.76 1.3 18.43zm53.39-22.39c-18-3.084-30.9-2.698-5.689-6.39 10.94-14.34 34.83-42.12 18.48-6.368-2.267 4.814-5.101 15.62-12.79 12.76zm-42.63-21.67c-17.07-39.16 21.88 5.055 0 0zm29.97 1.218c-16.46-4.983 21.95-20.74-6.877-19.81-8.668-4.291-27.5 15.25-17.3-5.577-12.26-16.19-39.82 6.017-34.03 4.498 18.51 12.93-2.716 2.41-9.647 0.4183-15.37 9.353-7.668-39.91 15.88-23.92-13 8.823-4.579 8.822-6.997 16.75 20.92 13.24 18.22-46.88 28.75-14.97-5.66 26 39.87 15.87 52.74 24.9 11.84-17.5-4.565 14.18-18.58 10.43l-2.938 2.999zm13.44-27.39c-5.354-15.42 20.08-11.22 2.875 1.125-0.4974 1.747-7.925 1.844-2.875-1.125zm20.13-2.736c-18.2-9.815 23.56-7.586 0 0zm-116.1-8.324c1.535-8.219-12.63-22.57 5.705-15.06-4.146-20.23-66.86-8.482-25.64-17.41-10.56 1.083-11.72-27.16-23.7-10.04 4.406-14.25-21.58-33.16 5.503-21.04 32.86 15.84 34.73-55.67 49.61-49.4-6.051 16.01 25.27-26.86 15.47 1.388-9.222 17.37-33.25 29.99-22.59 55.3 31.7 5.921-3.374 22.04-11.06 17.35-4.434 14.45 26.08 1.093 14.25 15.27 25.85 1.014-16.46 9.867-4.92 25.62zm-0.4601-59.04c1.721-22.17-22.43 13.51 0 0zm69.66 50.72c11.67-12.67 19.22 5.012 0 0zm-11.45-2.951c4.811-14.9-26.23-10.61-2.4-18.37 19.86 8.307-13.96-18.8 13.99-13.35 33.92 9.86 18.04 27.97-6.562 26.73 5.599 4.08-4.357 10.74-5.024 4.988zm-80.56-0.9142c-5.363-19.86 22.27-0.6465 0 0zm45.78-3.725c15.6-21.77 23.25-1.225 0 0zm-136.4-43.05c-16.46-16.45 15.33-5.534 0 0zm120.8-8.844c7.402-23.47 6.016 13.37 0 0zm-30.32-40.43c0.1556-19.7 38.82-18.27 13.79-7.771-3.089 4.062-7.345 15.01-13.79 7.771zm-8.916-12.83c-24.66-25.21 30.01-0.7249 6.465 1.149zm43.32-7.845c6.845-29.37 10.62 13.15 0 0zm-31.11-1.407c-20.17-19.34 5.173-25.1 23.89-23.03-26.32 8.764 17.53 9.57-2.897 20.23-7.466-2.207-13.99 2.523-20.99 2.797zm-214.5-19.18c-25.88-17.37 14.96-23.52 0 0zm230-27.81c-0.9113-29.37 13.01 11.11 0 0zm-114.2-2.12c-8.352-26.89 30.34-25.93 15.57-0.4152-4.526 2.451-11.24 3.861-15.57 0.4152zm138.2-1.64c-9.795-15.97-14.22-29.41-29.1-11.43 0.6075-5.801 7.246-45.41-1.473-16.13-4.632 4.164-41.3 14.42-14.72 0.0813 7.757-12.5-34.03-8.192-30.71-21.73-22.33-22.16 18.25 18.53 4.195-6.557-2.817-22.56 20.16 16.56 27.68-7.487 11.18-1.618 7.527 28.29 25.86 10.94 2.822-17.63-14.41 10.95-7.947-14.69 8.608-1.948 26.64 15.35 27.66 21.68-14.98 12.6 12.13 32.69 7.642 44.41l-3.782 0.5999-5.3 0.3262zm-49.68-35.9c16.32-31.64-16.6-18.75 0 0zm34.05 31.45c-9.51-15.12 17.54 1.468 0 0zm-54.98-19.72c-12.23-11.29 19.03-0.589 0 0zm78.14-24.74c9.984-14.69 14.26 8.123 0 0zm-61.68-15.61c-15.07-15.4 11.62-30.48 8.948-25.31 5.612 13.97-12.63 25.88 4.44 20.12-2.267 3.896-9.806 10.99-13.39 5.191zm-40.19 1.625c1.203-15.39 41.25-3.929 0 0zm-5.214-24.25c-1.514-11.99 29.44-31.96 21.12-14.86-10.43-6.83-14.2 27.8-21.12 14.86zm42.44-4.257c-22.21-2.491 5.079-48.27-11.98-26.3-23.2 4.105 19.34-27.47-0.2305-25.56-10.14 19.7-55.39 7.726-30.57 35.33-27.7 0.9691-9.934-31.17 9.152-24.7-23.78-5.502 25.65-5.511 2.169-22.56-11.14-10.86-0.9589-26.96-18.79-15.16-23.02-10.1-36.55 2.03-45.39 21.42-18.49 8.565-23.55-14.78-23.17-24.07-12.5 8.48 8.159-29.3-17.68-18.79 18.84-11-2.368-49.37-21.97-48.2-13.48-41.18-29.76 2.986-42.63 23.29-20.15 16.67-37.02-31.74-4.068-15.25 30.82 16.51-33.02-29.32-0.8613-23.62 14.29 3.247 2.325 24.1 16.04 9.401 3.621-27.17-22.37-25.89-33.34-17.46-6.816 10.78-14.93 6.413-30.2 6.957 18.26-11.11 35.74-41.56 29.86-52.53 8.712 19.58 15.59-32.65 19.53-0.3775 10.06 9.214 12.78 22.05 7.893 27.59-5.866 25.92 28.59 17.63 39.76 9.556 13.97 4.316 16.64 18.31 12.12 23.26 18.45 2.032 61.19 1.083 42.24 34.25 12.75 22.51 66.26-21.68 64.74 17.06-13.46 11.35 16.11 22.71 7.875 2.497 10.09 12.08 20.46 29.36 10.11 4.326 10.64 1.748 11.55-11.24 13.92 10.42 11.63 12.79 1.653 15.73-11.88 13.84 19.8 18.93 42.38 46.73 16.06 66.07 15.92-9.425 11.28-1.562 1.283 9.318zm-19.53-61.49c7.681-25.05-17.76 5.711 0 0zm-86.94-19.04c-1.476-11.6 39.05-20.65 6.55-25.08-14.19 1.048-13.12 41.62-6.55 25.08zm-14.13-25.47c2.496-6.445-3.152-8.004-2.098-17.27-8.061-2.235-6.124 21.83 2.098 17.27zm-87.82-82.67c1.877-14.71-23.4-4.672-3.759-1.583-9.94 5.351 2.755 8.424 3.759 1.583zm43.91 186.6c-5.477-19.27 19.17 3.772 0 0zm47.79-5.105c-18.72 6.435-12.34-33.32-21.9-12.84 0.7586-17.14 1.918-12.38-9.258-18.96 2.413-26.15 23.7 26.22 17.45-10.35-20.44-7.762 32.82-0.602 44.44 3.629 9.181-6.902 28.26-4.097 10.49 7.407-18.33-4.915-22.63 30.37-41.22 31.12zm13.13-16.76c24.79-17.44-32.98-31.36-4.122-11.19 1.926 7.13-14.85 26.35 4.316 14.08zm-15.26 0.7491c18.44-19.26-13.16-4.185 0 0zm-47.58 6.049c-4.628-22.73 22.17-4.146 0 0zm96.11-8.912c4.184-13.93 20.07 2.515 0 0zm-65.2-32.39c13.38-16.39 19.26 1.596 0.6213 0.235zm-11.07-9.515c-8.034-9.763 11.56-7.826 0.9662-1.947 1.457 0.2902 6.453 8.693-0.9662 1.947zm-37.96-13.89c-5.178-20.61 11.41 7.289 17.16-1.533-5.67 0.997-11.43 1.167-17.16 1.533zm19.73-11.12c-25.22-6.308 9.575-17.91 16.63-4.107-4.644 2.06-13.74-0.3854-16.63 4.107zm7.416-16.07c-25.72-10.16 20.82-3.905 0 0zm58.87-43.54c-9.32-11.35 2.243-0.9329 5.052 0.4459zm-181-8.538c0.364-18.14-14.69-26.96-8.051-47.62-12.72-11.65 10.26-37.4 0.3041-10.94 0.8421 14.82 29.92 22.63 3.507 19.26-8.56 10.66 21.7 33.78 4.241 39.3zm226.8-8.638c-26.94-4.209 8.146-45.5 0.8386-19.25-16.05 16.33 18.8 4.283 4.678 21.64zm-28.83-3.937c3.294-33.96 19.42 9.053 0 0zm-182.7-4.358c-20.1-14.18 7.448 2.405 14.43-6.988 12.78 0.06886-14.72 10.51-14.43 6.988zm194.1-1.526c1.759-23.94 15.09 11.12 0 0zm-166.1-18.55c-23.23 0.6135 24.67-30.62 0 0zm126.7-10.86c-26.4-27 37.24 0.1244 0 0zm-174.1-1.525c8.308-18.48 22.51 5.961 0 0zm28.66-3.184c-6.254-11.53 19.34-12.61 0 0zm38.32-13.56c1.301-18.44 19.74-5.823 0 0z" fill="#3d3e40"/>
   <path d="m467.5 804.3c7.635-34.25 21.44 1.749 0 0zm-17.74-21.16c5.367-7.772 8.689-22.43 12.11-28.79-7.964 3.139-34.61 36.69-32.6 7.181 8.019-11.5 8.142-14.45 18.72-11.72-27.49-24.93 15.54 12.38 27.11-2.98 10.83 5.463-18.14 12.07-16.92 21.38-4.25 8.465 11.92 17.82-8.418 14.92zm-4.081-23.8c-2.869-13.31-20.18 12.57 0 0zm27.67 20.24c-16.26-8.04 13.98-31.34 3.104-1.428 0.6847 6.908-0.5573 6.24-3.104 1.428zm-71.98-29.87c3.076-15.84 39.95-16.77 22.57-37.24-9.65 6.773-5.71 28.22-10.81 5.416 2.645-21.08-25.81 26.23-26.12-4.784-2.272-23.55 24.24 10.61 27.63-11.67 7.501-13.13 42.34 23.07 14.01 16.76-3.22 17.17 18 9.676-4.416 17.77 7.042 17.09-25.67-5.382-16.64 13.37l-6.228 0.3766zm-28.02-56.52c3.233-11.01 37.33-31.47 11.89-21.58-5.63-4.057-30.17-3.04-17.41-13.83 5.353 24.91 48.19-19.23 29.2 17.05-0.2294 23.58-16.16-6.989-21.42 19.87l-1.64-1.088zm61.85-5.545c-15.53-11.26 18.29-15.58 0 0zm-69.75-6.881c-10.54-18.35 6.842-10.57 1.194 1.847zm-10.23-19.66c9.383-19.28-24.02 3.816-6.008-15.38 12.33-3.616 33.29-0.9369 7.804 3.431 13.41-4.642 3.862 11.85-1.796 11.95zm24.79-3.794c11.32-20.66 31.21-55.99-6.664-47.34-0.4673 15.93-1.116 45.56-5.222 11.04 7.123-38.3 64.32 5.406 24.19 24.16-7.101 9.412-9.426 0.0906-6.433 12.97zm43.41-78.55c-16.65-12.51-53.96-4.802-47.24-34.55-7.862-3.326-15.03 41.61-10.72 8.939 6.872-30.52-13.69 9.579-30.6 1.742-17.81 1.417 29.93-30.83-3.815-21.34 25.76-9.935-26.07-4.971-6.576-19.24 25.38 16.41 28.22-9.691 5.439-18.11-11.3-20.56 23.79-29.77 16.02-41.39 16.22-3.86 11.91-33.7-0.3796-11.73-18.97 15.91 10.9-33.81-10.39-29.5 1.93-24.29-37.84 5.43-14.47-21.84 5.457-20.6-31.8 1.292-7.381-16.39 21.55 5.756-33.15-32.21 2.766-21.07-1.924-21.03 12.97-19.97 5.318 0.8661-17.86 22.11 25.39-3.152 13.34-0.1734 0.5037 15.29 27.76 33.54 21.85 8.405-13.67-4.635-12.18-27.11-6.547-31.53-10.86 1.765-14.21-32.64-29.59-19.43 3.73 11.36-5.484 10.01 9.415 7.348-4.063 31.59-26.94-24.09-31 1.346-31.82 6.066 30.18-18.82 1.706-37.81-4.564 26.52-9.623-2.56-3.408-10.82-25.7 12.27 25.35-21.94-0.5115-33.88-8.525-11.46-35.81-35.93-8.279-28.57 8.631-13.06-10.03-14.5-4.814-27.65-10.75 7.099-12.49-2.583-6.702 16.73 0.8896 12.38-17.58-32.32-13.34-8.01-15.47 4.229-11.59-16.57-12.37-22.65-3.825-26.44-75.56 25.69-58.51-20.63-0.9439-23.6-24.83-14.69-34.23-22.89-25 10.99 3.186-16.07-21.42-19.65-15.4-3.482-30.86 20.29-44.22-3.089 6.262-12.84 7.441-8.874-5.025-5.852 15.99-13.25 5.445-21.3-0.1706-29.33 1.562-19.18-20.04 1.178-21.74-13.79-18 8.39-26.18-0.9285-1.95-0.6225 7.538 2.925 25.6 2.688 11.53-3.054 18.75-12.88 11.95 27.58 34.48 8.553 13.49-0.03493 50.98-8.08 48.03-26.46-9.222-12.93-22.54 2.803-12.51-19.01 18.37-15.73 25.06 25.29 41.39 29.19 8.133 20.97 33.43 30.33 39.27 38.43 10.74-0.1895-7.737 39.09 18.94 33.05 3.396-14.49-22.23 0.1203-6.111-16.78 6.704-17.19 8.999 13.55 21.78 11.4 9.179 15.39 16.75 15.91 23.01 29.66 14.34 4.939 34.67-25.77 19.54-0.2118-10.27 16.77-33.78 41.5-45.42 35.12 12.91 25.47 36.15-18.74 38.77 0.348 16.42 0.7328 21.63 26.63 30.16 1.953 15.97-11 22.16 3.094 21.11 10.45 19.52 13.89-11.31 31.14-11.71 47.25-20.24 10.46-6.679 25.82-13.86 37.02 12.29 7.355 5.305-17.42 11.77 3.355 2.849 19.56 12.27-4.508 14.31 19.27 3.112 15.67 22.9 4.14 13.2 17.69 11.09 17.98 25.83-1.987 24.06-8.553-2.976 25.68-27.49 52-30.06 79.19-15.77-6.077-31.33-2.586-6.155 2.741-7.665 8.969 9.348 11.4 3.965 22.68 7.043-15.14 51.44 9.625 26.86-5.939 25.84-24.52 54.93 35.88 14.57 28.55-30.22 10.89-20.72 53.09-3.764 51.97 16.22-4.704 41.55-25.28 35.07-24.58 25.09 8.294 27.46 50.01-5.709 31.23-3.38 11.59-16.38-9.811-24.58 11.28-13.93 8.296 5.076 15.11-12.66 24.38 24.17 7.572-30.47 8.983-0.0195 14.26 6.263 20.33 13.45-12.8 31.3 1.412 12.46-3.119 4.366-22.63 23.84-10.22 13.9 11.43-5.603 13.27 12.13 18.38 6.312-3.807-0.6668 20.2-13.08 15.86 21.03 5.055-12.3 11.21-4.122 13.91-3.737-2.008-4.986 8.968-9.804 2.378zm3.259-11.39c22.2-26.75-20.84 7.463 0 0zm-21.33-18.69c18.32-7.57-25.21 2.632 0 0zm-45.33-10.07c21.34-21.46-25.85 13.85 0 0zm-20.3-46.42c12.24-20.28-15.24 2.3 0 0zm-12.56-110.2c9.387-27.99-15.71-4.026 0 0zm10.18-13.42c-6.471-13.74-6.03 14.91 0 0zm22.63-40.58c19.05-9.432-18.25 0.2168 0 0zm-158.9-176.1c-0.8616-21.51 41.65 12.36 19.78-14.47-18.02-19.08-33.63 13.16-19.78 14.47zm71.56-5.161c10.05-17.03-24.6-1.665 0 0zm-74.02-14.4c-5.131-13.75-20.48 0.8803 0 0zm13.27-5.088c12.38-7.396 18.93-29.6 1.139-12.38-3.668 3.376-13.33 25-1.139 12.38zm-26.4-0.9123c10.42-7.223 30.69-22.4 5.896-16.35-9.59-1.84-17.67-19.5-17.08 1.437 19.58 5.096-11.07 9.141 9.718 16.49zm29.84-14.02c9.355-27.81-17.15 7.567-2.388-13.26-12.48 2.938-13.11 17.21 2.388 13.26zm-110.5-6.363c-4.821-12.45 22.56 9.557 6.61-11.64-3.336-0.3068-20.03 11.91-6.61 11.64zm121.9-3.794c-8.29-12.57-5.766 17.42 0 0zm-35.07-26.49c1.183-25.59-32.87 4.432-1.875 1.008l1.733-0.9319zm-36.72-11.32c-4.827-21.85-30.29 20.22-2.807 4.136-2.843 10.86 8.75-0.7837 2.807-4.136zm201.2 506.1c-13.13-5.276 3.698-29.27 2.25-5.28-0.4271-2.473-1.074 8.768-2.25 5.28zm-28.4-27.64c-17.41 8.667-28.06-28.28-8.951-9.174 4.255-10.02 24.3 10.65 8.951 9.174zm78.27-21.35c-7.861-28.93 21.17 3.917 0 0zm-15.43-50.82c-29.79-11.77 10.89-14.34 1.639 1.529zm4.667-5.745c-8.949-14.26 21.19 6.972 0 0zm6-12.3c19.98-11.97 24.5 8.86 0 0zm-26.33-60.17c-17.66-15.38 14.23-1.84 0.1712 0.0287zm-91.88-19.86c0.6765-1.962 11.79-5.496 10.19-4.669 10.95 3.769-7.165 9.882-10.19 4.669zm114.9 0.2643c-11.24-5.457-10.66-21.71-20.06-13.33 5.324-21.93 24.82-23.1 24.25 1.973 8.729-0.6356 0.2996 18.67-4.187 11.36zm-29.67-4.895c-7.233-36.92 23.59-2.443 0 0zm-76.95-5.426c3.953-14.14 11.63 0.1662 0 0zm50.84-89.98c-15.39-11.55 12.39-27 9.2-38.24 25.49-1.313 27.6 46.76-2.438 26.28 0.931 8.26 11.76 17.37-6.761 11.96zm-174.2-11.36c4.58-23.29 14.86 0.7396 0 0zm-12.48-8.523c7.034-12.78-20.4-15.21 1.383-27.59 20.72-12.76 37.27 20.49 48.05-8.467-0.7399-26.06 44.27-13.27 17.87 2.812-11.08-16.1-12.72 11.82 0.8645 7.731-14.94 27.16-46.98-2.508-67.75 8.306 11.54-3.41 5.566 20.88-0.4156 17.21zm61.82-23.62c-14.35-22.9-16.68 17.19 0 0zm121.4 13.69c-1.777-17.12 14.5 14.42 0 0zm-211.7-39.21c-43.28-2.652 14.44-23.86 3.178 1.596zm220-57.9c-10.12-7.495-8.338-14.19-18.66-8.936 11.1-12.98-8.927-21.35 16.72-19.25 2.736 4.795 24.53 36.06 1.945 28.19zm-26.56-2.557c-4.872-33.43 15.92-4.979 0 0zm-287.1-26.22c5.372-16.08 26.12-20.69 8.729-37.58 0.6572-19.62-1.462-14.24-12.64-11.33-30.92-9.922 30.16-22.35 5.663-8.321 32.47 10.97 44.31 35.25-1.75 57.24zm8.842-2.182c2.048-21.67-18.17 7.726 0 0zm10.45-26.84c11.41-19.36-13.81-2.281-1.494 2.714l1.579-1.313zm-37.65 23.84c-0.7273-23.99 10.28 20.96 0 0zm60.44-17.67c-18.49-9.36 17.32-4.841 0 0zm-67.06-13.57c-13.51-16.21 8.185-39.63 5.643-12.75-11.02 1.908 1.397 17.01-5.643 12.75zm50.3-5.432c-14.71-13.2 17.22-15.37 0 0zm235.2-2.687c-11.33-23.44 25.31-11.33 0 0zm-158.3-36.22c-5.649-27.39 11.31 11.94 0 0zm93.96-5.058c-23.95-25.24 26.69-5.681 5.764 0.4977zm-185.3-7.364c-10.74-47.87 32.5 7.654 0 0zm171.2-6.268c-1.418-16.36 10.24 10.85 0 0zm11.1-2.647c-12.99-21.5 21.28-6.18 0 0z" fill="#2c2d30"/>
   <path d="m458.9 776.4c-4.026-18.36 30.46-32.88 10.98-10.01-1.373 4.866-3.419 15.37-10.98 10.01zm-24.66-14.6c13.84-21.04 21.31 5.68 0 0zm-18.15-11.69c-1.98-7.011-16.06-11.91 2.392-8.55 19.66 12.95-4.199-3.701-0.1469 10.2zm33.25-2.107c-15.65-4.847 19.66 0.7801 0 0zm12.88-2.014c-11.73-19.8 24.34-23.36 16.2-1.81-6.393-4.724-12.67-7.531-16.2 1.81zm-34.2-6.493c-11.44-12.55 46.85-19.08 10.37-6.036 22.68 9.139 5.919 2.122-10 7.597zm-2.043-10.21c-23.76-12.26 12.96-24.54 0 0zm50.31-13.88c-0.5185-28.84-10.61 4.38-7.332-2.434-32.18-12.7 23.69-14.15 0.8661-28.97 1.113 15.73-6.555-5.85-10.28 13.93-19.78-1.388-4.809-39.76-18.02-18.75 11.56-22.49-22.1 9.803-7.34 12.32-15.57-5.278-33.12 36.08-44.71 5.893 8.296-14.14 9.554-51.49 24.61-25.14 7.938-4.365 37.01-33.4 25.92-7.263 11.8-12.23 15.28-19.82 19.2-2.092 8.117-7.148 7.381 10.57 21.28 2.672-0.7505 10.87-13.23 11.07-4.087 14.95-4.802 2.414 11.33 45-0.1053 34.88zm-51.26-27.73c23.39-5.506-26.92 0.8658 0 0zm-51.33 4.699c-17.43-20.96 38.34-23.61 3.776-9.021-1.856 2.476 0.1991 8.003-3.776 9.021zm-9.886-14.7c-19.39-7.061 3.498-15.57 0 0zm6.07-12.89c4.997-14.99-21.69 1.748-4.518-14.03-24.2 0.1092 29.4-11.52 3.168-20.93-6.823-38.9 55.76-15.41 18.66 5.504 3.073 6.036-14.35 31.84 4.478 12.5 1.232-35.86 44.27 0.6537 17.21 5.92-22.89-12.67-5.391 18.26-30.46 10.88l-4.773-0.2358zm8.903-34.14c7.734-23.34-19.53 1.646 0 0zm43.14 9.214c-5.002-23.55 19.96 9.348 0 0zm-14.47-18.26c10.29-20.46 12.71 8.199 0 0zm38.21-42.9c16.59-28.6-12.33-48.95-15.73-67.37-16.38 19.58-20.1-5.911-40.71-4.991 7.204-13.77 23.54-24.46 28.16-15.49 6.565-12.43 45.2 12.57 26.32-14.86-12.73-45.59-32.44 10.63-58.28 4.701 12.07-10.98-34.95-18.06-9.575-35.38 7.272-16.57 59.3-20.43 31.94-39.57 3.72-24.66-42.05-1.478-27.6-11.97 12.56 20.27 10.91 11.27-9.08 4.694-10.01-4.461-29.38-4.072-21.75-16.01-25.79-5.653-7.596-6.178 6.887-2.933 3.565-27.67 23.94-53.44 30.73-77.15-4.576 3.688-12.78 28.58-24.51 8.232 2.837-12.59-24.78-20.38-18.84-32.91-13.12 8.572-7.092-17.56-20.85-7.059-1.963-19.64 18.2-52.06 35.9-75.64-28.85-3.779 2.607-32.07-25.66-23.14-18.39 4.941-9.571 26.54-24.93 4.538-6.965-7.318-19.39-1.761-15.29-9.405-6.493 16.2-44.03 18.79-29.91 4.025 22.55 3.718 39-28.88 44.06-46.41-12.55 22.53-31.26 11.29-33.23-3.49-8.13 9.489-10.18-25.57-26.32-18.59-9.099-31.07-48.71-27.5-60.58-61.34-14.95-7.661-19.98-25.17-32.97-36.2-12.36 11.24-15.53 27.32 1.268 21.49 11.64 24.16-29.22 33.67-47.24 30.27-12.79 27.16-26.37-28.77-18.55 2.219 27.72-14.34-23.7-26.42-23.43-19.4-5.545-16.07 2.416-21.39 7.6-18.79 8.541-20.19 33.92-4.949 14.57 12.53 8.237-14.7 17.35 26.45 23.94-1.26 34.58 3.853 15.4-26.88 44.38-26.95 18.09 14.03 39.39 57.83 61.31 47.98-12.51-10.23 3.503-17.01 8.515-4.513-9.793 13.49 26.64 13.4 14.95-5.481 20.52-5.073-1.706 26.57 13.56 25.57-9.872 19.32 34.01 24.88 15.14 6.103 17.42-12.95 4.32-28.11 31.77-23.05 3.138 12.31 15.72 40.16-12.66 29.03-23.11-12.29 22.65 15.83-9.127 8.94-11.7 9.175 2.632 17.04 7.632 6.439 13.97 13.07 29.88 10.68 32.5-5.212 15.98 9.19-9.521 22.45 11.23 12.53-10.29 14.97 28.92 3.616 23.11 26.44 29.13-7.685 29.63 19.85 20.03 34.19 3.375 8.868 10.83-4.866 9.594 13.66 12.36 9.699 6.304-16.35 26.84-13.34 36.68 7.256-35.86 44.9-17.33 39.25 3.626-15.73-16.59-31.59-16.73-10.95 19.34-3.809-18.05 17.84 7.461 17.87 8.05-19.91-4.272 26.18 12.87 29.51 23.18 13.59 40.08 19.23 19.6 46-21.87 13.61-33.35 53.47-4.804 68.51-2.333-13.32 17.74-4.884 9.704 3.017 20.71 12.9 4.525 20.51 2.172 34.11 13.21 8.366 31.68-32.88 40.71-7.151 0.7978 7.621 11.74 25.41-8.498 18.98-0.13-26.23-44.35 18.84-13.64 29.35 17.76 19.07 21.64 41.79 8.086 59.62 16.9 1.259 15.6 20.75-0.8628 8.04 4.833-14.98-25.36 10.88 2.119 9.428 4.05 10.45 42.19-11.51 19.68 13.5-13.25 11.96-20.76 53.55-25.63 55.24zm1.539-44.75c27.69-5.437-2.004-21.85 0 0zm-52.51-63.76c-11.43-28.47-28.28 2.769 0 0zm7.961-4.77c-4.555-13.97-15.55 5.606 0 0zm16.71-12.28c-11.17-12.5-25.4 8.976-3.052 0.3278l1.957-0.2101zm-7.909-61.68c2.584-17.72 4.569-16.31-11.74-7.068-0.2993 4.08 14.25 17.14 11.74 7.068zm-32.76 0.6514c-6.09-19.03-17.46-1.922 0 0zm25.93-22.96c-0.4688-19.41-15.12-41.08-26.09-12.05-2.071 10.32 16.91-8.622 11.84 11.47 3.214 3.434 14.46 10.17 14.25 0.5823zm-30.22-0.9188c11.46-27.27-21.25-7.795-2.405 1.075zm-25.12-94.98c1.725-6.619-7.247-20.63 14.34-10.44 27.28 1.256-17.94-52.31-15.35-15.99-10.12 5.958-20.47 29.76 1.009 26.43zm-3.727-29.94c-10.49-21.17-8.525 11.36 0 0zm-40.72-83.14c-7.948-19.57-13.33 0.3671 0 0zm27.27-1.529c-5.424-18.75-9.604 4.013 0 0zm-10.75-8.698c-1.26-21.11-14.96-12.51 0 0zm35.54-7.259c-7.121-13.09-10.4-37.98-27.28-19.3 7.808 3.897-8.011 19.19 7.529 12.81-6.013-16.84 11.5 27.97 19.75 6.484zm-29.02 1.849c-0.5586-35.51-16.58 5.051 0 0zm-30.43-73.51c7.622-9.192 0.8318-22.38-4.042-5.09-5.107-20.41-4.066 15.48 4.042 5.09zm-156.9-33.14c2.384-25.12-14.87 0.4928 0 0zm10.47-1.067c3.718-17.22-17.6 7.987 0 0zm207.5 531c-6.041-14.88 15.22-42.83 6.817-11.8-0.0415 3.697-0.54 12.52-6.817 11.8zm66.84-40.49c2.462-32.16 6.904 10.65 0 0zm-71.13-125.2c-0.3151-19.32 14.71 9.587 0 0zm-43.19-26.57c-15.73-4.735-31.63-16.64-5.916-15.28 11.45 4.458 23.48 24.8 5.916 15.28zm142.6-62.89c19.88-15.49 9.775 12.93 0 0zm-244.3-79.02c-20.29-21.29 24.19-3.982 0 0zm3.741-15.6c4.613-20.57 15.64 12.87 0 0zm-15.1-64.59c-19.09-30.4 42.76-16.53 25.12-4.55-7.938-3.787-22.57-8.057-25.12 4.55zm71.36-7.262c-12.18-17.56 21.97 1.064 0 0zm-65.33-15.76c-5.048-20.04 39.02-27.76 10.94-9.032-3.111 3.313-4.148 14.69-10.94 9.032zm-22.75-4.055c-15.67-7.695 17.36-12.88-6.682-14.16-4.649-21.89 23.18 0.1164 32.01 1.859-10.76 0.4558-12.24 10.17-25.33 12.3zm-145.9-11.62c0.1952-23.28 16.45 3.85 0 0zm347.3-6.334c-9.364-22.73 7.804-5.189 1.74 2.382l-0.977-0.5583zm-272-3.522c-23.45-15.04 13.3-3.531 0 0zm288.7-2.145c-24.83-6.252-10.75-26.82 4.041-25.41-2.347 12.19 26.25 33.01-4.041 25.41zm-83.87-28.98c-5.272-17.81 13.53-1.817 0 0zm-163.5-1.744c-40.76-4.512 23.71-31.63 0 0zm-99.22-1.713c-13.76-16.1-19.77-10.58-15.11-28.32-2.551-18.89 29.57 15.45 40.89 3.144-2.371 11.36-44.31 7.466-26.23 10.91 8.341-4.835 6.43 17.32 0.4493 14.26zm308.8-11.89c-4.567-18.97 12.06-18.12 0 0zm-142.5-20.69c-35.98-6.26 8.227-57.01 8.895-23.14 2.308-17.88 18.53-18.36 10.94 2.171 19.15 37.38-13.74 6.81-19.84 20.97zm19.85-7.429c-7.235-32.89-28.31 10.48 0 0zm-17.16-1.064c-8.936-22.47-8.853 9.57 0 0zm-0.3486-13.22c-8.55-13.95-4.765 14 0 0zm54.67 17.53c-42.18-13.57 13.94-17.69 0 0zm-219.4-2.722c-17.59-2.334 12.57-30.77 1.765-2.068l-0.7419 1.706zm189.9-3.067c-11.32-25.06 24.97 4.813 0 0zm-71.33-8.255c-2.24-20.14 13.98 9.002 0 0z" fill="#1c1d21"/>
   <path d="m477 722.6c-8.29-11.51-34.3-23.23-9.818-35.34 4.102 14.53 4.446-11.06 9.62 10.38 3.083 4.219 3.4 32.4 0.198 24.97zm0.8076-16.13c-18.08-33.09-20.31 18.5 0 0zm-40.87-13.25c3.761-17.02 21.01-32.9 8.913-8.033 7.412 9.602-11.13 11.8-8.913 8.033zm-20.43-5.861c21.87-10.08 6.374 12.1 0 0zm0.3857-14.63c-12.45-4.345-18.93-21.82 1.537-20.7-1.58-13.91-22.96-28.92 4.95-35.8 36.02-12.1 18.91-70.88 50.02-93.84 14.79-4.526 4.881 42.5 8.755 58.73-2.62 28.18 3.113 60.41-6.376 85.94-15.13-0.1074-15.74-8.335-22.51-16.67-2.996 6.634-16.24 22.96-11.53 3.747-10.62-2.522-21.88 13.98-24.86 18.6zm12.4-34.41c-10.48-22.12-6.098 14.39 0 0zm-35.19 17.84c-3.94-15.94 14.85 2.888 0 0zm49.77-121.1c-0.1994-20.89 29.73-5.967 3.322-2.059-0.7966 0.1102-2.465 5.947-3.322 2.059zm-12.85-14.52c-15.44-19.64 21.09-4.891 0 0zm25-6.478c-16.12-6.251-22.99-20.38-4.359-11.92 30.66 6.637-18.3-14.73 5.939-25.58 13.98-31.96-58.39-61.27-6.806-81.51 2.965-6.094 13.71 22.21 18.27 1.565-1.679-30.29-29-18.38-40.99-1.097-17.57-12.96 26.1-25.59-5.576-34.95 1.296-27.08-21.43 6.201-25.66-21.67-16.45-35.68 36.01-48.44 29.78-84.59-28.1 9.105-48.56-50.54-40.92-47.64-6.386 16.6-18.06-13.68-2.023-12.23-22.14-15.88 17.89-10.18 11.02 10.17 7.368-11.92 40.61-31.23 16.88-40.44-22.25 5.881-23.3 27.99-33.05-1.192-5.014-4.196 12.38-42.59-22.88-35.83 1.388-17.21-35.92-13.84-28.43-21.45-14.03 7.461 8.828-23.68-12.62-15.56 7.032 35.03-28.43-6.213-35.47 12.98-8.402-12.99 23.18-18 7.833-24.86 35.09 25.03 20.66-46.86-6.417-23.63 13.62 17.5-20.22-0.8973-9.226 22.09 4.687 22.81-26.78 0.789-17-14.68-18.21 1.731 11.27-25.76-12.4-18.21 3.5 23.96-25.61 12.08-20.86-1.748-17.42-6.792-1.617 24.49-22.21 9.801-15.56-18.44-32.31-36.07-45.44-48.3-22.34 6.296-16.13 34.32-42.38 31.2-11.97 18.81-14.73-9.018-23-2.814 14.4-13.81 3.097-25.29-13.06-18.3 4.732 13.91-26.81 13.61-4.28 27.97-3.237-27.43 43.04 23.74 19.89 11.38-1.526-20.83-37.96 9.606-37.19-16.55-21.57-3.527-14.02 11.09-20.95 16.24-10.87 17.26-40.07-6.099-20.88-8.084-34.74-14.59 4.527-63.41 15.79-40.14-17.77-1.306-4.303 37.81 5.919 14.91 25.54 19.39 27.11-2.041 22.04-21.09h162.1c-21.86 11.54-12.2 44.83 15.29 36.13 32.45 7.639-23.22-36.48 22.79-36.13h226.7v508.7c-9.296-3.279-17.32 14.88-26.13 7.048zm6.906-200.4c17.26-15.43-29.43 7.292 0 0zm-74.91-204.8c-5.073-21.64-13.11-11.13-3.198 1.237 0.6268 1.993 5 0.7371 3.198-1.237zm28-8.83c-10.27-15.08-18.57-32.02-32.35-13.21-0.04401 10.89 26.02 25.58 32.35 13.21zm-96-31.48c-6.836-13.38-3.037 17.7 0 0zm44.92-15.19c8.379-35.63-15.79 20.31 0 0zm-341.8-7.458c-8.776-11.76-6.1 15.21 0 0zm-4.936-15.88c-16.47-12.18-9.374 15.19 0 0zm26.66 2.98c-17.32-18.04-22.77 7.081 0 0zm232.4 0.02c3.054-28.12-33.74 3.158 0 0zm-23.42-4.967c6.653-22.23-26.77-2.488 0 0zm-73.1-8.595c-0.3971-20.53-13.01 8.902 0 0zm-111.5-7.484c-4.035-21.36-10.69 14.57 0 0zm338.3 380.4c-23.43-7.588 24.65-24.36 2.212-6.826 3.003 2.47 1.557 16.7-2.212 6.826zm-106.3-232.3c-17.58-17.95 12.66 2.7 0 0zm28-2c-21.06-23.13 16.59 4.435 0 0zm-11.2-7.734c-9.847-18.18 3.642-12.01 0 0zm-173.8-114.8c9.397-18.43 10.43 15.52 0 0zm74.36-5.705c-32.34-18.72 16.01-6.474 0 0z" fill="#141518"/>
  </g>
 </g>
</svg>
