<?xml version="1.0" encoding="UTF-8"?>
<svg width="154.8mm" height="51.59mm" version="1.1" viewBox="0 0 154.8 51.59" xmlns="http://www.w3.org/2000/svg" xmlns:cc="http://creativecommons.org/ns#" xmlns:dc="http://purl.org/dc/elements/1.1/" xmlns:rdf="http://www.w3.org/1999/02/22-rdf-syntax-ns#">
 <g transform="translate(-80.86 -61.82)">
  <g shape-rendering="auto">
   <g fill="#121416">
    <path d="m107.3 61.82c-2.192 0-3.969 1.777-3.969 3.969v22.49c0 7.259 5.969 13.23 13.23 13.23s13.23-5.969 13.23-13.23-5.971-13.23-13.23-13.23c-1.514 0-2.971 0.2614-4.33 0.7391-0.4708 0.1878-0.9612-0.1598-0.9612-0.6913v-9.308c0-2.192-1.777-3.969-3.969-3.969zm9.26 21.17c2.969 0 5.293 2.323 5.293 5.293s-2.323 5.291-5.293 5.291c-2.969 0-5.291-2.322-5.291-5.291s2.322-5.293 5.291-5.293z" color="#121416" color-rendering="auto" dominant-baseline="auto" image-rendering="auto" solid-color="#121416" stop-color="#121416" style="font-feature-settings:normal;font-variant-alternates:normal;font-variant-caps:normal;font-variant-east-asian:normal;font-variant-ligatures:normal;font-variant-numeric:normal;font-variant-position:normal;inline-size:0;isolation:auto;mix-blend-mode:normal;shape-margin:0;shape-padding:0;text-decoration-color:#121416;text-decoration-line:none;text-decoration-style:solid;text-indent:0;text-orientation:mixed;text-transform:none;white-space:normal"/>
    <path d="m136.4 61.82a3.969 3.982 0 0 0-3.969 3.982v31.72a3.969 3.982 0 0 0 3.969 3.982 3.969 3.982 0 0 0 3.969-3.982v-31.72a3.969 3.982 0 0 0-3.969-3.982z" color="#121416" color-rendering="auto" dominant-baseline="auto" image-rendering="auto" solid-color="#121416" stop-color="#121416" style="font-feature-settings:normal;font-variant-alternates:normal;font-variant-caps:normal;font-variant-east-asian:normal;font-variant-ligatures:normal;font-variant-numeric:normal;font-variant-position:normal;inline-size:0;isolation:auto;mix-blend-mode:normal;shape-margin:0;shape-padding:0;text-decoration-color:#121416;text-decoration-line:none;text-decoration-style:solid;text-indent:0;text-orientation:mixed;text-transform:none;white-space:normal"/>
    <path d="m156.3 75.04c-7.259 0-13.23 5.971-13.23 13.23 0 7.259 5.969 13.23 13.23 13.23 7.259 0 13.23-5.969 13.23-13.23 0-7.259-5.971-13.23-13.23-13.23zm0 7.938c2.97 0 5.293 2.323 5.293 5.293 0 2.97-2.323 5.291-5.293 5.291-2.97 0-5.291-2.322-5.291-5.291 0-2.97 2.322-5.293 5.291-5.293z" color="#121416" color-rendering="auto" dominant-baseline="auto" image-rendering="auto" solid-color="#121416" stop-color="#121416" style="font-feature-settings:normal;font-variant-alternates:normal;font-variant-caps:normal;font-variant-east-asian:normal;font-variant-ligatures:normal;font-variant-numeric:normal;font-variant-position:normal;inline-size:0;isolation:auto;mix-blend-mode:normal;paint-order:normal;shape-margin:0;shape-padding:0;text-decoration-color:#121416;text-decoration-line:none;text-decoration-style:solid;text-indent:0;text-orientation:mixed;text-transform:none;white-space:normal"/>
   </g>
   <path d="m185.4 75.04c-7.259 0-13.23 5.969-13.23 13.23 0 7.259 5.971 13.23 13.23 13.23 1.514 0 2.971-0.2613 4.33-0.739 0.3572-0.1424 0.7246 0.0242 0.8816 0.3447-0.427 2.51-2.561 4.363-5.212 4.363-1.984 0-3.656-1.065-4.575-2.652-1.099-1.897-3.527-2.543-5.424-1.444-1.897 1.099-2.543 3.527-1.444 5.424 2.285 3.942 6.576 6.609 11.44 6.609 7.259 0 13.23-5.97 13.23-13.23v-11.91c0-7.259-5.97-13.23-13.23-13.23zm0 7.938c2.969 0 5.291 2.322 5.291 5.291 0 2.97-2.322 5.293-5.291 5.293-2.969 0-5.292-2.323-5.292-5.293 0-2.97 2.323-5.291 5.292-5.291z" color="#121416" color-rendering="auto" dominant-baseline="auto" fill="#4A67BC" image-rendering="auto" solid-color="#121416" stop-color="#121416" style="font-feature-settings:normal;font-variant-alternates:normal;font-variant-caps:normal;font-variant-east-asian:normal;font-variant-ligatures:normal;font-variant-numeric:normal;font-variant-position:normal;inline-size:0;isolation:auto;mix-blend-mode:normal;shape-margin:0;shape-padding:0;text-decoration-color:#121416;text-decoration-line:none;text-decoration-style:solid;text-indent:0;text-orientation:mixed;text-transform:none;white-space:normal"/>
   <path d="m214.5 75.04c-7.259 0-13.23 5.971-13.23 13.23v9.26a3.969 3.969 0 0 0 3.969 3.969 3.969 3.969 0 0 0 3.969-3.969v-9.26c0-2.97 2.322-5.293 5.291-5.293 2.97-1e-5 5.291 2.323 5.291 5.293v9.26a3.969 3.969 0 0 0 3.969 3.969 3.969 3.969 0 0 0 3.969-3.969v-9.26c0-7.259-5.969-13.23-13.23-13.23z" color="#121416" color-rendering="auto" dominant-baseline="auto" fill="#4A67BC" image-rendering="auto" solid-color="#121416" stop-color="#121416" style="font-feature-settings:normal;font-variant-alternates:normal;font-variant-caps:normal;font-variant-east-asian:normal;font-variant-ligatures:normal;font-variant-numeric:normal;font-variant-position:normal;inline-size:0;isolation:auto;mix-blend-mode:normal;paint-order:normal;shape-margin:0;shape-padding:0;text-decoration-color:#121416;text-decoration-line:none;text-decoration-style:solid;text-indent:0;text-orientation:mixed;text-transform:none;white-space:normal"/>
  </g>
  <rect transform="rotate(22.2)" x="237.4" y="-25.8" width="7.938" height="11.91" ry="3.969" fill="#4A67BC" stop-color="#121416"/>
  <g transform="matrix(.7021 0 0 1.05 80.85 60.86)" aria-label="JUST">
   <path d="m1.446 28.62v0.9004h2.995v4.263l-0.03369 1.23c0 0.4381-0.1602 0.7886-0.4816 1.051-0.3182 0.2628-0.7646 0.3941-1.339 0.3941-0.4056 0-0.8394-0.09699-1.301-0.2913-0.4617-0.1943-0.7373-0.4037-1.09-0.7617l-0.1844 0.8715c0.2837 0.414 0.8098 0.8727 1.209 0.9869 0.4025 0.1143 0.8546 0.1717 1.357 0.1717 0.468 0 0.8671-0.06852 1.198-0.2057 0.3338-0.1371 0.6257-0.3279 0.8753-0.5717 0.2277-0.2247 0.4043-0.4988 0.5291-0.8226 0.1279-0.3238 0.1916-0.6516 0.1916-0.983v-6.234h-0.9306z" stroke-width=".3381"/>
   <path d="m13.01 33.79q0 0.9397-0.1692 1.642-0.1645 0.696-0.5452 1.16-0.3619 0.4408-0.846 0.6438-0.4841 0.203-1.128 0.203-0.658 0-1.147-0.2146-0.4888-0.2146-0.8225-0.6322-0.3807-0.4756-0.5499-1.148-0.1645-0.6728-0.1645-1.653v-5.168h0.9306v5.226q0 0.7018 0.0752 1.108 0.0799 0.406 0.2632 0.7366 0.2068 0.377 0.5593 0.5684 0.3572 0.1914 0.8554 0.1914 0.5029 0 0.8554-0.1856 0.3525-0.1914 0.564-0.5742 0.1833-0.3306 0.2585-0.7541 0.0799-0.4292 0.0799-1.061v-5.255h0.9306z" stroke-width=".2673"/>
   <path d="m20.64 34.86q0 0.4971-0.1919 0.9828-0.1872 0.4857-0.5288 0.8228-0.3744 0.3657-0.8751 0.5714-0.4961 0.2057-1.198 0.2057-0.7534 0-1.357-0.1714-0.599-0.1714-1.221-0.5085v-1.417h0.06552q0.5288 0.5371 1.221 0.8285t1.301 0.2914q0.8611 0 1.338-0.3943 0.482-0.3943 0.482-1.051 0-0.5657-0.2293-0.8342-0.2246-0.2686-0.6879-0.4171-0.351-0.1143-0.7628-0.1886-0.4071-0.07428-0.8658-0.1886-0.9266-0.24-1.376-0.8171-0.4446-0.5828-0.4446-1.514 0-1.069 0.7394-1.748 0.7394-0.6857 1.877-0.6857 0.7347 0 1.348 0.1714t1.086 0.4228v1.337h-0.06552q-0.3978-0.4114-1.048-0.68-0.6458-0.2743-1.324-0.2743-0.7441 0-1.198 0.3771-0.4493 0.3771-0.4493 0.9714 0 0.5314 0.2246 0.8342 0.2246 0.3028 0.7909 0.4628 0.2995 0.08 0.8517 0.1943 0.5522 0.1143 0.936 0.2343 0.7768 0.2514 1.17 0.76 0.3931 0.5085 0.3931 1.423z" stroke-width=".2648"/>
   <path d="m28.28 29.67h-2.152v7.774h-1.069v-7.774h-2.151v-1.042h5.372z" stroke-width=".2571"/>
  </g>
 </g>
</svg>
