<?xml version="1.0" encoding="UTF-8"?>
<svg width="55.56mm" height="51.59mm" version="1.1" viewBox="0 0 55.56 51.59" xmlns="http://www.w3.org/2000/svg" xmlns:cc="http://creativecommons.org/ns#" xmlns:dc="http://purl.org/dc/elements/1.1/" xmlns:rdf="http://www.w3.org/1999/02/22-rdf-syntax-ns#">
 <metadata>
  <rdf:RDF>
   <cc:Work rdf:about="">
    <dc:format>image/svg+xml</dc:format>
    <dc:type rdf:resource="http://purl.org/dc/dcmitype/StillImage"/>
    <dc:title/>
   </cc:Work>
  </rdf:RDF>
 </metadata>
 <g transform="translate(15.72 8.232)" shape-rendering="auto">
  <path d="m-11.75-8.232c-2.192 0-3.969 1.777-3.969 3.969v22.49c0 7.259 5.969 13.23 13.23 13.23s13.23-5.969 13.23-13.23c1e-5 -7.259-5.971-13.23-13.23-13.23-1.514 0-2.971 0.2614-4.33 0.7391-0.4708 0.1878-0.9612-0.1598-0.9612-0.6913v-9.308c0-2.192-1.777-3.969-3.969-3.969zm9.26 21.17c2.969 0 5.293 2.323 5.293 5.293 0 2.97-2.323 5.291-5.293 5.291-2.969 0-5.291-2.322-5.291-5.291 0-2.97 2.322-5.293 5.291-5.293z" color="#121416" color-rendering="auto" dominant-baseline="auto" fill="#121416" image-rendering="auto" solid-color="#121416" stop-color="#121416" style="font-feature-settings:normal;font-variant-alternates:normal;font-variant-caps:normal;font-variant-east-asian:normal;font-variant-ligatures:normal;font-variant-numeric:normal;font-variant-position:normal;inline-size:0;isolation:auto;mix-blend-mode:normal;shape-margin:0;shape-padding:0;text-decoration-color:#121416;text-decoration-line:none;text-decoration-style:solid;text-indent:0;text-orientation:mixed;text-transform:none;white-space:normal"/>
  <path d="m26.62 4.997c-7.259 0-13.23 5.969-13.23 13.23 0 7.259 5.971 13.23 13.23 13.23 1.514 0 2.971-0.2613 4.33-0.739 0.3572-0.1425 0.7246 0.02424 0.8816 0.3447-0.427 2.51-2.561 4.363-5.212 4.363-1.984 0-3.656-1.065-4.575-2.652-1.099-1.897-3.527-2.543-5.424-1.444-1.897 1.099-2.543 3.527-1.444 5.424 2.285 3.942 6.576 6.609 11.44 6.609 7.259 0 13.23-5.97 13.23-13.23v-11.91c0-7.259-5.97-13.23-13.23-13.23zm0 7.938c2.969 0 5.291 2.322 5.291 5.291 0 2.97-2.322 5.293-5.291 5.293-2.969 0-5.292-2.323-5.292-5.293 0-2.97 2.323-5.291 5.292-5.291z" color="#121416" color-rendering="auto" dominant-baseline="auto" fill="#4A67BC" image-rendering="auto" solid-color="#121416" stop-color="#121416" style="font-feature-settings:normal;font-variant-alternates:normal;font-variant-caps:normal;font-variant-east-asian:normal;font-variant-ligatures:normal;font-variant-numeric:normal;font-variant-position:normal;inline-size:0;isolation:auto;mix-blend-mode:normal;shape-margin:0;shape-padding:0;text-decoration-color:#121416;text-decoration-line:none;text-decoration-style:solid;text-indent:0;text-orientation:mixed;text-transform:none;white-space:normal"/>
 </g>
</svg>
